<svg xmlns="http://www.w3.org/2000/svg" width="170" height="90" viewBox="0 0 170 90" fill="none"><style>.a{fill:#AFB1B8;}</style><rect x="0.5" y="0.5" width="169" height="89" rx="3.5" stroke="#AFB1B8"/><path d="M57.4 36.8H57.4C55.1 36.8 53.3 38.6 53.3 40.8V40.8C53.3 43 55.1 44.8 57.4 44.8H57.4C59.7 44.8 61.5 43 61.5 40.8V40.8C61.5 38.6 59.7 36.8 57.4 36.8Z" class="a"/><path d="M87.6 35.6C87.6 32.5 86.4 29.6 84.2 27.4 81.9 25.2 78.9 24 75.8 24V24C72.6 24 69.6 25.2 67.4 27.4 65.2 29.6 63.9 32.5 63.9 35.6V52.4C63.9 52.4 87.6 49.9 87.6 35.6V35.6Z" class="a"/><path d="M45 58C45 60.1 45.9 62.2 47.4 63.7 49 65.2 51.1 66 53.2 66 55.4 66 57.5 65.2 59.1 63.7 60.6 62.2 61.5 60.1 61.5 58V46.2C61.5 46.2 45 48 45 58ZM53.2 60.1C52.8 60.1 52.4 60 52 59.7 51.7 59.5 51.4 59.2 51.3 58.8 51.1 58.4 51 58 51.1 57.6 51.2 57.2 51.4 56.8 51.7 56.5 52 56.2 52.4 56 52.8 55.9 53.2 55.8 53.7 55.9 54.1 56 54.5 56.2 54.8 56.5 55 56.8 55.3 57.2 55.4 57.6 55.4 58 55.4 58.3 55.4 58.5 55.2 58.8 55.1 59 55 59.3 54.8 59.5 54.6 59.7 54.3 59.8 54.1 59.9 53.8 60 53.5 60.1 53.2 60.1V60.1Z" class="a"/><path d="M70.1 58.8H68.4V60.5H67.5V56.3H70.3V57H68.4V58.1H70.1V58.8ZM74.3 58.5C74.3 58.9 74.2 59.3 74.1 59.6 73.9 59.9 73.7 60.2 73.5 60.3 73.2 60.5 72.9 60.6 72.5 60.6 72.1 60.6 71.8 60.5 71.6 60.3 71.3 60.2 71.1 59.9 70.9 59.6 70.8 59.3 70.7 58.9 70.7 58.5V58.3C70.7 57.9 70.8 57.5 70.9 57.2 71.1 56.9 71.3 56.6 71.5 56.5 71.8 56.3 72.1 56.2 72.5 56.2 72.9 56.2 73.2 56.3 73.4 56.5 73.7 56.6 73.9 56.9 74.1 57.2 74.2 57.5 74.3 57.9 74.3 58.3V58.5ZM73.4 58.3C73.4 57.8 73.3 57.5 73.2 57.3 73 57 72.8 56.9 72.5 56.9 72.2 56.9 72 57 71.8 57.3 71.7 57.5 71.6 57.8 71.6 58.3V58.5C71.6 58.9 71.7 59.3 71.8 59.5 72 59.7 72.2 59.9 72.5 59.9 72.8 59.9 73 59.7 73.2 59.5 73.3 59.3 73.4 58.9 73.4 58.5V58.3ZM77.2 59.4C77.2 59.2 77.1 59.1 77 59 76.9 58.9 76.7 58.8 76.4 58.7 76.1 58.6 75.8 58.5 75.6 58.5 75.1 58.2 74.9 57.8 74.9 57.4 74.9 57.2 75 57 75.1 56.8 75.2 56.6 75.4 56.5 75.7 56.4 75.9 56.3 76.2 56.2 76.5 56.2 76.8 56.2 77.1 56.3 77.3 56.4 77.5 56.5 77.7 56.6 77.8 56.8 78 57 78 57.3 78 57.5H77.2C77.2 57.3 77.1 57.2 77 57.1 76.9 57 76.7 56.9 76.5 56.9 76.2 56.9 76.1 56.9 76 57 75.8 57.1 75.8 57.2 75.8 57.4 75.8 57.5 75.9 57.7 76 57.7 76.1 57.8 76.3 57.9 76.6 58 77.1 58.2 77.5 58.3 77.7 58.6 77.9 58.8 78 59.1 78 59.4 78 59.8 77.9 60.1 77.6 60.3 77.3 60.5 77 60.6 76.5 60.6 76.2 60.6 75.9 60.5 75.6 60.4 75.3 60.3 75.1 60.1 75 59.9 74.8 59.7 74.8 59.5 74.8 59.2H75.7C75.7 59.7 75.9 59.9 76.5 59.9 76.7 59.9 76.9 59.8 77 59.8 77.1 59.7 77.2 59.6 77.2 59.4ZM81.9 57H80.5V60.5H79.7V57H78.4V56.3H81.9V57ZM84.9 58.7H83.2V59.8H85.2V60.5H82.4V56.3H85.2V57H83.2V58H84.9V58.7ZM87.3 59H86.6V60.5H85.7V56.3H87.3C87.8 56.3 88.2 56.4 88.5 56.6 88.8 56.8 88.9 57.1 88.9 57.5 88.9 57.8 88.8 58.1 88.7 58.3 88.6 58.5 88.4 58.6 88.1 58.7L89.1 60.5V60.5H88.1L87.3 59ZM86.6 58.3H87.3C87.5 58.3 87.7 58.2 87.8 58.1 88 58 88 57.8 88 57.6 88 57.4 88 57.3 87.8 57.1 87.7 57 87.6 57 87.3 57H86.6V58.3ZM91.9 59V60.5H91.1V56.3H92.7C93 56.3 93.3 56.3 93.6 56.4 93.8 56.6 94 56.7 94.1 56.9 94.3 57.2 94.3 57.4 94.3 57.7 94.3 58.1 94.2 58.4 93.9 58.7 93.6 58.9 93.2 59 92.7 59H91.9ZM91.9 58.3H92.7C93 58.3 93.1 58.3 93.3 58.1 93.4 58 93.4 57.9 93.4 57.7 93.4 57.5 93.4 57.3 93.3 57.2 93.1 57 93 57 92.7 57H91.9V58.3ZM97.5 58.7H95.8V59.8H97.8V60.5H94.9V56.3H97.8V57H95.8V58H97.5V58.7ZM101.6 57H100.3V60.5H99.4V57H98.1V56.3H101.6V57ZM104.6 58.7H103V59.8H104.9V60.5H102.1V56.3H104.9V57H103V58H104.6V58.7ZM107 59H106.3V60.5H105.5V56.3H107C107.5 56.3 107.9 56.4 108.2 56.6 108.5 56.8 108.6 57.1 108.6 57.5 108.6 57.8 108.6 58.1 108.4 58.3 108.3 58.5 108.1 58.6 107.9 58.7L108.8 60.5V60.5H107.8L107 59ZM106.3 58.3H107C107.3 58.3 107.4 58.2 107.6 58.1 107.7 58 107.7 57.8 107.7 57.6 107.7 57.4 107.7 57.3 107.6 57.1 107.5 57 107.3 57 107 57H106.3V58.3ZM111.5 59.4C111.5 59.2 111.4 59.1 111.3 59 111.2 58.9 111 58.8 110.7 58.7 110.4 58.6 110.1 58.5 110 58.5 109.5 58.2 109.2 57.8 109.2 57.4 109.2 57.2 109.3 57 109.4 56.8 109.6 56.6 109.8 56.5 110 56.4 110.2 56.3 110.5 56.2 110.8 56.2 111.1 56.2 111.4 56.3 111.6 56.4 111.9 56.5 112.1 56.6 112.2 56.8 112.3 57 112.4 57.3 112.4 57.5H111.5C111.5 57.3 111.4 57.2 111.3 57.1 111.2 57 111 56.9 110.8 56.9 110.6 56.9 110.4 56.9 110.3 57 110.2 57.1 110.1 57.2 110.1 57.4 110.1 57.5 110.2 57.7 110.3 57.7 110.5 57.8 110.7 57.9 110.9 58 111.4 58.2 111.8 58.3 112 58.6 112.3 58.8 112.4 59.1 112.4 59.4 112.4 59.8 112.2 60.1 112 60.3 111.7 60.5 111.3 60.6 110.8 60.6 110.5 60.6 110.2 60.5 109.9 60.4 109.7 60.3 109.5 60.1 109.3 59.9 109.2 59.7 109.1 59.5 109.1 59.2H110C110 59.7 110.3 59.9 110.8 59.9 111 59.9 111.2 59.8 111.3 59.8 111.4 59.7 111.5 59.6 111.5 59.4Z" class="a"/></svg>
