<svg xmlns="http://www.w3.org/2000/svg" width="170" height="90" viewBox="0 0 170 90" fill="none"><style>.a{fill:#AFB1B8;}</style><rect x="0.5" y="0.5" width="169" height="89" rx="3.5" stroke="#AFB1B8"/><path d="M71.3 65.8C71.4 65.8 71.4 65.8 71.4 65.8 71.4 65.8 71.4 65.8 71.4 65.8L71.6 66C71.5 66.2 71.3 66.4 71.1 66.5 70.8 66.6 70.5 66.6 70.2 66.6 70 66.6 69.7 66.6 69.5 66.5 69.2 66.4 69 66.2 68.9 66.1 68.7 65.9 68.6 65.7 68.5 65.5 68.4 65.2 68.4 65 68.4 64.7 68.4 64.4 68.4 64.2 68.5 63.9 68.6 63.7 68.7 63.5 68.9 63.3 69.1 63.2 69.3 63 69.5 63 69.8 62.9 70.1 62.8 70.3 62.8 70.6 62.8 70.8 62.9 71.1 62.9 71.3 63 71.5 63.1 71.6 63.3L71.4 63.5C71.4 63.5 71.4 63.5 71.4 63.6 71.4 63.6 71.4 63.6 71.3 63.6 71.3 63.6 71.3 63.6 71.3 63.6L71.2 63.5 71 63.4C71 63.4 70.9 63.4 70.9 63.3 70.8 63.3 70.7 63.3 70.6 63.3 70.5 63.3 70.4 63.2 70.3 63.3 70.1 63.2 69.9 63.3 69.8 63.4 69.6 63.4 69.4 63.5 69.3 63.6 69.2 63.8 69.1 63.9 69 64.1 68.9 64.3 68.9 64.5 68.9 64.7 68.9 64.9 68.9 65.1 69 65.3 69.1 65.5 69.2 65.7 69.3 65.8 69.4 65.9 69.6 66 69.7 66.1 69.9 66.1 70.1 66.2 70.3 66.2 70.4 66.2 70.5 66.2 70.6 66.2 70.7 66.1 70.9 66.1 71 66 71.1 65.9 71.2 65.9 71.2 65.8 71.3 65.8 71.3 65.8 71.3 65.8Z" class="a"/><path d="M77.3 64.7C77.3 65 77.2 65.2 77.1 65.5 77.1 65.7 76.9 65.9 76.8 66.1 76.6 66.2 76.4 66.4 76.2 66.5 75.6 66.6 75.1 66.6 74.6 66.5 74.4 66.4 74.2 66.2 74 66.1 73.8 65.9 73.7 65.7 73.6 65.5 73.4 65 73.4 64.4 73.6 63.9 73.7 63.7 73.8 63.5 74 63.3 74.2 63.2 74.4 63 74.6 63 75.1 62.8 75.6 62.8 76.2 63 76.4 63.1 76.6 63.2 76.8 63.4 76.9 63.5 77.1 63.7 77.1 63.9 77.2 64.2 77.3 64.4 77.3 64.7ZM76.7 64.7C76.8 64.5 76.7 64.3 76.6 64.1 76.6 63.9 76.5 63.8 76.4 63.6 76.3 63.5 76.1 63.4 75.9 63.4 75.6 63.2 75.2 63.2 74.8 63.4 74.6 63.4 74.5 63.5 74.4 63.6 74.2 63.8 74.1 63.9 74.1 64.1 74 64.5 74 64.9 74.1 65.3 74.1 65.5 74.2 65.6 74.4 65.8 74.5 65.9 74.6 66 74.8 66.1 75.2 66.2 75.6 66.2 75.9 66.1 76.1 66 76.3 65.9 76.4 65.8 76.5 65.6 76.6 65.5 76.6 65.3 76.7 65.1 76.8 64.9 76.7 64.7Z" class="a"/><path d="M81.3 65.4L81.4 65.5C81.4 65.4 81.4 65.4 81.5 65.4 81.5 65.3 81.5 65.3 81.5 65.2L82.8 62.9C82.9 62.9 82.9 62.9 82.9 62.9 82.9 62.9 83 62.9 83 62.9H83.4V66.6H82.9V63.8C82.9 63.8 82.9 63.8 82.9 63.7 82.9 63.7 82.9 63.6 82.9 63.6L81.6 65.9C81.6 65.9 81.6 66 81.5 66 81.5 66 81.5 66 81.4 66H81.4C81.3 66 81.3 66 81.2 66 81.2 66 81.2 65.9 81.2 65.9L79.8 63.6C79.8 63.6 79.8 63.7 79.8 63.7 79.8 63.8 79.8 63.8 79.8 63.8V66.6H79.4V62.9H79.8C79.8 62.9 79.8 62.9 79.9 62.9 79.9 62.9 79.9 62.9 79.9 62.9L81.3 65.2C81.3 65.3 81.3 65.3 81.3 65.4Z" class="a"/><path d="M86.3 65.2V66.6H85.8V62.9H86.9C87.1 62.9 87.4 62.9 87.6 62.9 87.7 63 87.9 63.1 88 63.2 88.1 63.3 88.2 63.4 88.3 63.5 88.3 63.7 88.4 63.8 88.4 64 88.4 64.2 88.3 64.3 88.3 64.5 88.2 64.6 88.1 64.7 88 64.8 87.9 65 87.7 65 87.5 65.1 87.3 65.2 87.1 65.2 86.9 65.2L86.3 65.2ZM86.3 64.8H86.9C87 64.8 87.2 64.8 87.3 64.7 87.4 64.7 87.5 64.6 87.6 64.6 87.7 64.5 87.7 64.4 87.8 64.3 87.8 64.2 87.8 64.1 87.8 64 87.8 63.9 87.8 63.8 87.8 63.7 87.7 63.6 87.7 63.5 87.6 63.4 87.4 63.3 87.2 63.2 86.9 63.2H86.3V64.8Z" class="a"/><path d="M93.2 66.6H92.8C92.8 66.6 92.7 66.6 92.7 66.5 92.7 66.5 92.6 66.5 92.6 66.4L92.3 65.5H90.5L90.1 66.4C90.1 66.5 90.1 66.5 90.1 66.5 90 66.5 90 66.6 90 66.6H89.6L91.1 62.9H91.6L93.2 66.6ZM90.7 65.2H92.1L91.5 63.7C91.4 63.6 91.4 63.4 91.4 63.3L91.3 63.5C91.3 63.6 91.3 63.6 91.3 63.7L90.7 65.2Z" class="a"/><path d="M95.4 62.9C95.5 62.9 95.5 62.9 95.5 62.9L97.8 65.7C97.8 65.7 97.8 65.6 97.8 65.6 97.8 65.6 97.8 65.5 97.8 65.5V62.9H98.2V66.6H98C97.9 66.6 97.9 66.6 97.8 66.5 97.8 66.5 97.8 66.5 97.8 66.5L95.5 63.7C95.5 63.7 95.5 63.8 95.5 63.8 95.5 63.9 95.5 63.9 95.5 63.9V66.6H95.1V62.9H95.3C95.4 62.9 95.4 62.9 95.4 62.9Z" class="a"/><path d="M102 65.1V66.6H101.5V65.1L100.1 62.9H100.5C100.6 62.9 100.6 62.9 100.6 62.9 100.7 62.9 100.7 62.9 100.7 63L101.6 64.4C101.6 64.5 101.7 64.5 101.7 64.6 101.7 64.6 101.7 64.7 101.8 64.7L101.8 64.6C101.8 64.5 101.9 64.5 101.9 64.4L102.8 63C102.8 62.9 102.8 62.9 102.9 62.9 102.9 62.9 102.9 62.8 103 62.8H103.4L102 65.1Z" class="a"/><path d="M81.1 56.6C81.3 56.7 81.5 56.7 81.8 56.7 85.2 55.2 88.2 52.8 90.2 49.8 92.2 46.7 93.3 43.1 93.2 39.5L89.4 35.9C90.2 39.7 89.8 43.7 88.3 47.4 86.9 51 84.4 54.3 81.1 56.6Z" class="a"/><path d="M79.7 56.5L79.8 56.5C83.3 54.1 86 50.8 87.5 46.9 89 43.1 89.2 38.9 88.2 35L82.7 29.8C84.9 34 85.8 38.8 85.3 43.5 84.8 48.3 82.8 52.8 79.7 56.5Z" class="a"/><path d="M98.2 43.8C97.3 47.8 95 51.4 91.8 54 90.8 54.8 89.8 55.5 88.7 56.1 91.4 55.4 93.8 54.1 95.8 52.3 97.8 50.5 99.4 48.3 100.4 45.9L98.2 43.8Z" class="a"/><path d="M97.3 43.2L94.2 40.2C94.1 43.6 93.1 47 91.2 49.9 89.4 52.8 86.7 55.2 83.5 56.8H83.5C84.3 56.8 85 56.7 85.7 56.7 88.6 55.5 91.2 53.7 93.3 51.3 95.3 49 96.7 46.2 97.3 43.2Z" class="a"/><path d="M80.2 27.6L76.4 24C73.1 25.2 70.2 27.4 68.1 30.2 66.1 33.1 65 36.4 65 39.8V39.8C65 43.6 66.4 47.3 68.8 50.3 71.3 53.2 74.7 55.4 78.5 56.3 82 52.3 84 47.3 84.3 42.2 84.6 37 83.1 31.9 80.2 27.6Z" class="a"/><path d="M106 42.6C106 38.2 104.1 33.9 100.8 30.7 97.4 27.5 92.9 25.7 88.2 25.7 86 25.7 83.9 26.1 81.8 26.8L104.8 48.7C105.6 46.8 106 44.7 106 42.6Z" class="a"/></svg>