<svg xmlns="http://www.w3.org/2000/svg" width="170" height="90" viewBox="0 0 170 90" fill="none"><style>.a{fill:#AFB1B8;}</style><rect x="0.5" y="0.5" width="169" height="89" rx="3.5" stroke="#AFB1B8"/><path d="M69 20L76.3 26.9H96.7V46.2L104 53.1V20H69Z" class="a"/><path d="M63 26.6V58.8H97V46L76.5 26.6 63 26.6ZM90.5 54.1H68.4V32.5H69.9V52.6H90.5V54.1Z" class="a"/><path d="M72.8 64.8L73.6 63.1H74.3L73.1 65.3V66.7H72.5V65.3L71.3 63.1H72L72.8 64.8ZM76.3 65.8H74.9L74.6 66.7H74L75.3 63.1H75.9L77.2 66.7H76.6L76.3 65.8ZM75.1 65.3H76.1L75.6 63.9 75.1 65.3ZM78.7 65.7C78.7 65.5 78.8 65.4 78.9 65.2 79 65.1 79.1 64.9 79.4 64.8 79.3 64.6 79.2 64.4 79.1 64.3 79.1 64.2 79 64.1 79 64 79 63.7 79.1 63.5 79.3 63.3 79.5 63.1 79.7 63.1 80 63.1 80.2 63.1 80.4 63.1 80.6 63.3 80.8 63.4 80.9 63.6 80.9 63.8 80.9 64 80.8 64.1 80.7 64.3 80.7 64.4 80.5 64.5 80.4 64.6L80.1 64.8 80.8 65.6C80.9 65.4 81 65.2 81 65H81.5C81.5 65.4 81.4 65.8 81.2 66L81.7 66.7H81L80.8 66.4C80.5 66.6 80.2 66.7 79.9 66.7 79.5 66.7 79.3 66.6 79.1 66.4 78.8 66.2 78.7 66 78.7 65.7ZM79.9 66.2C80.1 66.2 80.3 66.2 80.5 66L79.7 65.1 79.6 65.2C79.4 65.3 79.3 65.5 79.3 65.7 79.3 65.8 79.4 66 79.5 66.1 79.6 66.2 79.7 66.2 79.9 66.2ZM79.6 63.9C79.6 64.1 79.7 64.2 79.8 64.5L80.1 64.3 80.2 64.2C80.3 64.1 80.3 64 80.3 63.9 80.3 63.8 80.3 63.7 80.2 63.6 80.2 63.6 80.1 63.5 80 63.5 79.8 63.5 79.8 63.6 79.7 63.6 79.6 63.7 79.6 63.8 79.6 63.9ZM86 65.5C86 65.9 85.9 66.2 85.6 66.4 85.4 66.6 85.1 66.7 84.6 66.7 84.4 66.7 84.1 66.6 83.9 66.5 83.7 66.4 83.5 66.2 83.4 65.9 83.3 65.7 83.2 65.4 83.2 65.1V64.7C83.2 64.4 83.3 64.1 83.4 63.8 83.5 63.6 83.7 63.4 83.9 63.3 84.1 63.1 84.4 63.1 84.7 63.1 85.1 63.1 85.4 63.2 85.6 63.4 85.9 63.6 86 63.9 86 64.3H85.4C85.4 64 85.3 63.8 85.2 63.7 85.1 63.6 84.9 63.6 84.7 63.6 84.4 63.6 84.2 63.6 84.1 63.8 83.9 64 83.8 64.3 83.8 64.7V65C83.8 65.4 83.9 65.7 84 65.9 84.2 66.1 84.4 66.2 84.6 66.2 84.9 66.2 85.1 66.2 85.2 66 85.3 65.9 85.4 65.8 85.4 65.5H86ZM89.4 65C89.4 65.3 89.4 65.6 89.3 65.9 89.1 66.1 89 66.4 88.7 66.5 88.5 66.6 88.3 66.7 88 66.7 87.7 66.7 87.4 66.6 87.2 66.5 87 66.4 86.8 66.2 86.7 65.9 86.5 65.6 86.5 65.3 86.5 65V64.8C86.5 64.4 86.5 64.1 86.7 63.9 86.8 63.6 87 63.4 87.2 63.3 87.4 63.1 87.7 63.1 88 63.1 88.2 63.1 88.5 63.1 88.7 63.3 89 63.4 89.1 63.6 89.2 63.9 89.4 64.1 89.4 64.4 89.4 64.8V65ZM88.8 64.8C88.8 64.4 88.7 64.1 88.6 63.9 88.4 63.7 88.2 63.6 88 63.6 87.7 63.6 87.5 63.7 87.3 63.9 87.2 64.1 87.1 64.4 87.1 64.8V65C87.1 65.4 87.2 65.7 87.3 65.9 87.5 66.1 87.7 66.2 88 66.2 88.2 66.2 88.4 66.1 88.6 65.9 88.7 65.7 88.8 65.4 88.8 65V64.8Z" class="a"/></svg>