<svg xmlns="http://www.w3.org/2000/svg" width="170" height="90" viewBox="0 0 170 90" fill="none"><style>.a{fill:#AFB1B8;}</style><rect x="0.5" y="0.5" width="169" height="89" rx="3.5" stroke="#AFB1B8"/><path d="M60.5 61.3C60.7 61.6 60.8 61.9 60.8 62.3 60.8 62.5 60.8 62.8 60.7 63 60.6 63.2 60.5 63.4 60.3 63.6 59.9 63.9 59.3 64.1 58.7 64H56V57.6H58.7C59.2 57.6 59.7 57.7 60.2 58.1 60.3 58.2 60.5 58.4 60.6 58.6 60.7 58.8 60.7 59 60.7 59.3 60.7 59.6 60.6 60 60.4 60.2 60.2 60.5 59.9 60.7 59.6 60.7 59.9 60.8 60.3 61 60.5 61.3ZM57.3 60.3H58.4C58.7 60.3 58.9 60.3 59.2 60.1 59.2 60 59.3 59.9 59.3 59.8 59.4 59.7 59.4 59.6 59.4 59.5 59.4 59.4 59.4 59.2 59.3 59.1 59.3 59 59.2 58.9 59.2 58.8 58.9 58.7 58.7 58.6 58.4 58.6H57.3V60.3ZM59.3 62.8C59.4 62.7 59.4 62.6 59.5 62.5 59.5 62.4 59.5 62.2 59.5 62.1 59.5 62 59.5 61.9 59.5 61.8 59.4 61.6 59.4 61.5 59.3 61.5 59 61.3 58.8 61.2 58.5 61.2H57.3V63H58.5C58.8 63 59 62.9 59.3 62.8Z" class="a"/><path d="M66 64L64.5 61.5H63.9V64H62.6V57.6H65.1C65.7 57.6 66.3 57.8 66.8 58.2 67.1 58.5 67.3 59 67.3 59.5 67.4 59.9 67.2 60.4 66.9 60.8 66.6 61.2 66.2 61.4 65.8 61.5L67.4 64H66ZM63.9 60.7H65C65.7 60.7 66.1 60.3 66.1 59.7 66.1 59.6 66.1 59.4 66 59.3 66 59.2 65.9 59.1 65.8 59 65.6 58.8 65.3 58.7 65 58.7H63.9L63.9 60.7Z" class="a"/><path d="M73 62.7H70.4L70 64H68.6L71 57.7H72.4L74.8 64H73.4L73 62.7ZM72.6 61.8L71.7 59.1 70.8 61.8H72.6Z" class="a"/><path d="M81.8 64H80.5L77.6 59.7V64H76.4V57.6H77.6L80.5 62V57.6H81.8V64Z" class="a"/><path d="M89 62.5C88.8 63 88.4 63.4 87.9 63.6 87.3 63.9 86.7 64 86.1 64H83.8V57.6H86.1C86.7 57.6 87.3 57.7 87.9 58 88.4 58.3 88.8 58.7 89 59.1 89.3 59.7 89.4 60.2 89.4 60.8 89.4 61.4 89.3 62 89 62.5ZM87.6 62.3C88 61.9 88.2 61.4 88.2 60.8 88.2 60.3 88 59.7 87.6 59.3 87.2 58.9 86.6 58.7 86 58.7H85.1V62.9H86C86.6 62.9 87.2 62.7 87.6 62.3Z" class="a"/><path d="M73.8 22C73.8 22 90.2 28.2 89.9 37.3V52.5C89.9 52.5 73.5 46.3 73.8 37.3L73.8 22Z" class="a"/><path d="M104.5 48.9C107.7 46.8 111.2 45.5 115 45.1V40.3C110.7 42 107 45 104.5 48.9Z" class="a"/><path d="M102.7 50.4C105.2 45.2 109.6 41.3 115 39.3V25.5C115 25.5 91.6 34.4 92.1 47.3V69C92.1 69 93.1 68.6 94.8 67.9 94.8 67.2 94.8 66.5 94.8 65.8 95.3 59.8 98.1 54.3 102.7 50.4Z" class="a"/><path d="M100.5 58.5C100.6 57 100.9 55.5 101.3 54 98.4 57.4 96.7 61.5 96.4 65.9 96.3 66.3 96.3 66.7 96.3 67.1 97.6 66.5 99.2 65.7 100.8 64.8 100.4 62.7 100.3 60.6 100.5 58.5Z" class="a"/><path d="M101.4 58.5C101.2 60.4 101.3 62.4 101.7 64.2 108.1 60.4 115.3 54.5 115 47.3V46.6C110.4 47.2 106.1 49.2 102.8 52.4 102 54.3 101.6 56.4 101.4 58.5Z" class="a"/></svg>
