<svg width="170" height="90" viewBox="0 0 170 90" fill="none"><style>.a{fill:#AFB1B8;}</style><rect x="0.5" y="0.5" width="169" height="89" rx="3.5" stroke="#AFB1B8"/><path d="M82 21.9H82.1C82.4 21.9 82.6 22 82.9 22 84.1 22.1 85.3 22.2 86.5 22.5V19.7C85.3 19.4 84 19.2 82.8 19.1 82.3 19 81.8 19 81.3 19H80.9C78.4 19 76 19.3 73.6 19.9 70.8 20.6 68.2 21.7 65.8 23.1V51.5C68.1 50.2 70.6 49.3 73.2 48.6 75.2 48.1 77.3 47.8 79.4 47.7H79.5C79.9 47.6 80.2 47.6 80.6 47.6V44.7C77.8 44.8 75.1 45.1 72.5 45.8 71.5 46.1 70.5 46.3 69.7 46.6L68.6 47V24.8L69.1 24.6C72.4 23.1 76 22.1 79.6 21.9 79.6 21.9 79.7 21.9 79.7 21.9 80.1 21.9 80.5 21.9 80.9 21.9H81.3 81.3C81.6 21.9 81.8 21.9 82 21.9Z" class="a"/><path d="M89.1 24.9C88.4 24.9 87.8 24.9 87.2 24.9 86.4 24.8 85.6 24.7 84.9 24.6 84.4 24.5 84 24.4 83.6 24.3V52.4C85.4 52.8 87.2 53.1 89.1 53 91.6 53 94.1 52.7 96.5 52.1 99.2 51.4 101.8 50.4 104.2 48.9V21C101.9 22.3 99.4 23.3 96.8 23.9 94.3 24.6 91.7 24.9 89.1 24.9ZM100.3 25.4L101.3 25.1V47.2L100.9 47.4C99.3 48.2 97.5 48.8 95.7 49.3 93.6 49.9 91.4 50.1 89.1 50.2 88.5 50.2 87.8 50.1 87.1 50.1L86.5 50V47.3 27.2L87.3 27.3C87.8 27.3 88.5 27.3 89.1 27.3 92 27.3 94.8 27 97.5 26.3 98.5 26 99.4 25.7 100.3 25.4Z" class="a"/><path d="M67.7 61.2C67.6 61.1 67.4 60.9 67.2 60.9 67 60.8 66.8 60.7 66.6 60.8 66.4 60.8 66.2 60.8 66 60.9 65.8 61 65.6 61.1 65.5 61.2 65.3 61.4 65.2 61.5 65.1 61.7 65 61.9 65 62.1 65 62.3V66.1C65 66.4 65.1 66.7 65.2 66.9 65.3 67.1 65.4 67.3 65.5 67.4 65.7 67.6 65.9 67.6 66.1 67.7 66.2 67.8 66.4 67.8 66.6 67.8 66.8 67.8 67 67.7 67.2 67.6 67.4 67.6 67.6 67.4 67.7 67.3 67.9 67.1 68 67 68.1 66.8 68.2 66.6 68.2 66.4 68.2 66.2V65.8H67.2V66.1C67.2 66.2 67.2 66.3 67.2 66.4 67.1 66.5 67.1 66.6 67 66.6 66.9 66.7 66.9 66.7 66.8 66.8 66.7 66.8 66.7 66.8 66.6 66.8 66.5 66.8 66.4 66.8 66.3 66.8 66.2 66.7 66.2 66.7 66.1 66.6 66 66.4 66 66.3 66 66.1V62.5C66 62.3 66 62.2 66.1 62 66.2 61.9 66.2 61.8 66.3 61.8 66.4 61.8 66.5 61.7 66.6 61.7 66.7 61.7 66.8 61.8 66.8 61.8 66.9 61.8 67 61.9 67 62 67.2 62.1 67.2 62.3 67.2 62.5V62.8H68.2V62.4C68.2 62.2 68.2 62 68.1 61.7 68 61.5 67.9 61.4 67.7 61.2Z" class="a"/><path d="M73.6 61.2C73.3 60.9 72.9 60.8 72.5 60.8 72.3 60.8 72.1 60.8 71.9 60.9 71.7 60.9 71.5 61 71.4 61.2 71.2 61.3 71.1 61.5 71 61.7 70.9 61.9 70.9 62.2 70.9 62.4V66.1C70.8 66.3 70.9 66.6 71 66.8 71.1 67 71.2 67.2 71.4 67.3 71.5 67.5 71.7 67.6 71.9 67.6 72.1 67.7 72.3 67.8 72.5 67.8 72.7 67.8 72.9 67.7 73.1 67.6 73.3 67.6 73.5 67.5 73.6 67.3 73.8 67.2 73.9 67 74 66.8 74.1 66.6 74.2 66.3 74.1 66.1V62.4C74.2 62.2 74.1 61.9 74 61.7 73.9 61.5 73.8 61.3 73.6 61.2ZM73.2 66.1C73.2 66.2 73.2 66.3 73.1 66.4 73.1 66.5 73 66.5 73 66.6 72.8 66.7 72.7 66.8 72.5 66.8 72.3 66.8 72.2 66.7 72 66.6 72 66.5 71.9 66.5 71.9 66.4 71.8 66.3 71.8 66.2 71.8 66.1V62.4C71.8 62.3 71.8 62.2 71.9 62.1 71.9 62.1 72 62 72 61.9 72.2 61.8 72.3 61.7 72.5 61.7 72.7 61.7 72.8 61.8 73 61.9 73 62 73.1 62.1 73.1 62.1 73.2 62.2 73.2 62.3 73.2 62.4V66.1Z" class="a"/><path d="M81.4 67.7V60.8H80.4L79.2 64.5H79.1L77.9 60.8H76.9V67.7H77.9V63.5H77.9L78.9 66.5H79.4L80.4 63.5H80.4V67.7H81.4Z" class="a"/><path d="M87 61.3C86.8 61.1 86.6 61 86.4 60.9 86.2 60.8 85.9 60.8 85.7 60.8H84.2V67.7H85.2V65H85.7C86 65 86.3 65 86.6 64.8 86.8 64.7 87 64.5 87.1 64.3 87.3 64.1 87.3 63.9 87.4 63.7 87.4 63.4 87.4 63.2 87.4 62.9 87.4 62.6 87.4 62.2 87.3 61.9 87.3 61.7 87.1 61.5 87 61.3ZM86.5 63.4C86.4 63.5 86.4 63.6 86.4 63.8 86.3 63.9 86.2 63.9 86.1 64 86 64.1 85.8 64.1 85.6 64.1H85.2V61.7H85.7C85.9 61.7 86 61.8 86.1 61.8 86.2 61.9 86.3 62 86.4 62.1 86.4 62.2 86.5 62.3 86.5 62.5 86.5 62.6 86.5 62.8 86.5 62.9 86.5 63.1 86.5 63.2 86.5 63.4H86.5Z" class="a"/><path d="M91.6 60.8H90.8L89.3 67.7H90.3L90.6 66.2H91.9L92.2 67.7H93.2L91.6 60.8ZM90.7 65.3L91.2 62.8H91.2L91.7 65.3H90.7Z" class="a"/><path d="M97.9 65H97.9L96.4 60.8H95.5V67.7H96.5V63.6H96.5L98 67.7H98.9V60.8H97.9V65Z" class="a"/><path d="M103.9 60.8L103.2 63.5H103.1L102.3 60.8H101.3L102.7 64.8V67.7H103.6V64.8L105 60.8H103.9Z" class="a"/><path d="M65 69.6H65.5V71H65.8V69.6H66.3V69.4H65V69.6Z" class="a"/><path d="M69 69.4L68.4 71H68.7L68.8 70.6H69.5L69.6 71H70L69.3 69.4H69ZM68.9 70.3L69.1 69.7 69.4 70.3H68.9Z" class="a"/><path d="M72.9 70.4H73.3V70.6C73.2 70.7 73 70.7 72.9 70.7 72.8 70.7 72.8 70.7 72.7 70.7 72.7 70.7 72.6 70.6 72.6 70.6 72.5 70.4 72.4 70.3 72.4 70.2 72.4 69.8 72.6 69.6 72.9 69.6 73 69.6 73.1 69.6 73.1 69.7 73.2 69.7 73.2 69.8 73.3 69.9L73.6 69.8C73.5 69.5 73.3 69.3 72.9 69.3 72.7 69.3 72.5 69.4 72.3 69.5 72.3 69.6 72.2 69.7 72.2 69.8 72.1 69.9 72.1 70.1 72.1 70.2 72.1 70.4 72.2 70.6 72.3 70.8 72.4 70.8 72.5 70.9 72.6 70.9 72.7 71 72.8 71 72.9 71 73.2 71 73.4 70.9 73.6 70.7V70.1H72.9V70.4Z" class="a"/><path d="M76.9 69.4H76.6V71H77.7V70.7H76.9V69.4Z" class="a"/><path d="M80.3 69.4H80V71H80.3V69.4Z" class="a"/><path d="M83.6 70.4L83 69.4H82.7V71H83V69.9L83.6 71H83.9V69.4H83.6V70.4Z" class="a"/><path d="M86.6 70.3H87.4V70H86.6V69.6H87.5V69.4H86.3V71H87.5V70.7H86.6V70.3Z" class="a"/><path d="M93.9 70H93.3V69.4H93V71H93.3V70.3H93.9V71H94.2V69.4H93.9V70Z" class="a"/><path d="M96.9 70.3H97.7V70H96.9V69.6H97.8V69.4H96.6V71H97.8V70.7H96.9V70.3Z" class="a"/><path d="M101 70.3C101.3 70.2 101.4 70.1 101.4 69.8 101.5 69.8 101.4 69.7 101.4 69.6 101.4 69.6 101.3 69.5 101.3 69.5 101.1 69.4 101 69.4 100.8 69.4H100.1V71H100.5V70.3H100.5C100.6 70.3 100.7 70.3 100.7 70.3 100.8 70.4 100.8 70.4 100.8 70.5L101.2 71H101.6L101.4 70.7C101.3 70.5 101.2 70.4 101 70.3ZM100.7 70H100.5V69.6H100.7C100.8 69.6 100.9 69.6 101 69.7 101.1 69.7 101.1 69.7 101.1 69.8 101.1 69.8 101.1 69.8 101.1 69.8 101.1 69.9 101.1 69.9 101.1 69.9 101.1 70 101.1 70 101 70 100.9 70 100.8 70.1 100.7 70Z" class="a"/><path d="M104.1 70.3H104.9V70H104.1V69.6H105V69.4H103.8V71H105V70.7H104.1V70.3Z" class="a"/></svg>
