<svg xmlns="http://www.w3.org/2000/svg" width="170" height="90" viewBox="0 0 170 90" fill="none"><style>.a{fill:#AFB1B8;}</style><rect x="0.5" y="0.5" width="169" height="89" rx="3.5" stroke="#AFB1B8"/><path d="M85.7 43.4C85.3 42.7 85.1 42 85.2 41.3V38.3C85.2 37.4 85.4 36.7 85.7 36.2 86.1 35.8 86.8 35.5 87.7 35.5 88.6 35.5 89.2 35.7 89.5 36.1 89.9 36.6 90.1 37.3 90.1 37.9V38.6H88.5V37.9C88.5 37.7 88.5 37.4 88.5 37.2 88.5 37 88.4 36.9 88.3 36.8 88.1 36.7 87.9 36.6 87.7 36.6 87.5 36.6 87.3 36.7 87.1 36.8 87 36.9 86.9 37.1 86.9 37.3 86.8 37.5 86.8 37.7 86.8 38V41.6C86.8 42 86.8 42.3 87 42.6 87.1 42.7 87.2 42.8 87.3 42.9 87.4 42.9 87.6 43 87.7 42.9 87.9 43 88.1 42.9 88.2 42.8 88.4 42.7 88.5 42.5 88.5 42.3 88.5 42.1 88.5 41.8 88.5 41.6V40.9H90.1V41.5C90.1 42.2 89.9 42.9 89.5 43.4 89.2 43.9 88.6 44.1 87.7 44.1 86.8 44.1 86.1 43.8 85.7 43.4Z" class="a"/><path d="M92.2 43.4C91.8 42.9 91.6 42.2 91.6 41.3V38.2C91.6 37.3 91.8 36.7 92.2 36.2 92.6 35.7 93.2 35.5 94.1 35.5 95.1 35.5 95.7 35.7 96.1 36.2 96.5 36.7 96.7 37.3 96.7 38.2V41.3C96.7 42.2 96.5 42.9 96.1 43.4 95.7 43.8 95 44.1 94.1 44.1 93.2 44.1 92.6 43.8 92.2 43.4ZM94.9 42.6C95 42.3 95.1 42 95.1 41.7V37.9C95.1 37.5 95 37.2 94.9 37 94.8 36.8 94.7 36.8 94.6 36.7 94.4 36.6 94.3 36.6 94.1 36.6 94 36.6 93.9 36.6 93.7 36.7 93.6 36.8 93.5 36.8 93.4 37 93.3 37.2 93.2 37.5 93.2 37.9V41.7C93.2 42 93.3 42.4 93.4 42.6 93.5 42.7 93.6 42.8 93.7 42.9 93.9 42.9 94 43 94.1 43 94.3 43 94.4 42.9 94.5 42.9 94.7 42.8 94.8 42.7 94.9 42.6V42.6Z" class="a"/><path d="M98.6 35.6H100.2L101.5 41.4 102.8 35.6H104.4L104.5 44H103.3L103.2 38.2 102 44H101L99.7 38.1 99.6 44H98.4L98.6 35.6Z" class="a"/><path d="M106.4 35.6H109C110.5 35.6 111.2 36.4 111.2 38 111.2 39.5 110.5 40.3 108.9 40.3H108V44H106.4L106.4 35.6ZM108.6 39.2C108.8 39.2 108.9 39.2 109.1 39.1 109.2 39.1 109.4 39 109.5 38.9 109.7 38.6 109.8 38.3 109.7 38 109.7 37.7 109.7 37.5 109.7 37.2 109.6 37.1 109.6 37.1 109.5 37 109.5 36.9 109.4 36.9 109.3 36.8 109.1 36.7 108.9 36.7 108.6 36.7H108V39.2H108.6Z" class="a"/><path d="M113.6 35.6H115.3L117 44H115.5L115.2 42H113.7L113.3 44H111.8L113.6 35.6ZM115 41.1L114.4 37.6 113.8 41.1H115Z" class="a"/><path d="M118.5 35.6H119.6L121.7 40.4V35.6H123.1V44H122L119.8 39V44H118.5L118.5 35.6Z" class="a"/><path d="M126.2 40.8L124.4 35.6H125.9L127 38.9 128 35.6H129.5L127.7 40.8V44H126.2V40.8Z" class="a"/><path d="M88.2 47.6V48.1H86.9V51.5H86.4V48.1H85V47.6H88.2Z" class="a"/><path d="M92.3 51.5H91.9C91.8 51.5 91.8 51.4 91.8 51.4 91.7 51.4 91.7 51.4 91.7 51.3L91.3 50.4H89.5L89.1 51.3C89.1 51.4 89.1 51.4 89.1 51.4 89 51.5 89 51.5 89 51.5H88.5L90.1 47.6H90.7L92.3 51.5ZM89.7 50H91.2L90.5 48.5C90.5 48.4 90.4 48.2 90.4 48.1 90.4 48.2 90.4 48.3 90.4 48.3L90.3 48.5 89.7 50Z" class="a"/><path d="M95.1 51.1C95.2 51.1 95.3 51.1 95.4 51.1 95.5 51.1 95.6 51.1 95.6 51 95.7 51 95.8 51 95.9 51 95.9 50.9 96 50.9 96.1 50.9V50H95.4C95.4 50 95.4 50 95.4 50 95.4 50 95.4 50 95.4 50 95.3 50 95.3 50 95.3 49.9 95.3 49.9 95.3 49.9 95.3 49.9V49.6H96.6V51.1C96.5 51.1 96.4 51.2 96.2 51.3 96.1 51.3 96 51.4 95.9 51.4 95.8 51.4 95.6 51.5 95.5 51.5 95.3 51.5 95.2 51.5 95 51.5 94.7 51.5 94.5 51.4 94.2 51.4 94 51.3 93.8 51.1 93.6 51 93.4 50.8 93.3 50.6 93.2 50.3 93.1 50.1 93 49.8 93 49.5 93 49.3 93.1 49 93.2 48.7 93.2 48.5 93.4 48.3 93.6 48.1 93.7 48 94 47.8 94.2 47.7 94.5 47.6 94.8 47.6 95.1 47.6 95.2 47.6 95.4 47.6 95.5 47.6 95.6 47.7 95.8 47.7 95.9 47.7 96 47.8 96.1 47.8 96.2 47.9 96.3 47.9 96.4 48 96.5 48.1L96.3 48.3C96.3 48.3 96.3 48.4 96.3 48.4 96.3 48.4 96.2 48.4 96.2 48.4 96.2 48.4 96.1 48.4 96.1 48.4 96.1 48.3 96 48.3 96 48.3 95.9 48.2 95.8 48.2 95.7 48.2 95.6 48.1 95.5 48.1 95.4 48.1 95.3 48.1 95.2 48 95 48 94.8 48 94.6 48.1 94.4 48.2 94.2 48.2 94.1 48.3 94 48.5 93.8 48.6 93.7 48.8 93.7 48.9 93.5 49.4 93.5 49.8 93.7 50.2 93.7 50.4 93.8 50.6 94 50.7 94.1 50.8 94.3 50.9 94.4 51 94.6 51.1 94.9 51.1 95.1 51.1Z" class="a"/><path d="M100.2 51H101.9V51.5H99.6V47.6H100.2L100.2 51Z" class="a"/><path d="M103.8 51.5H103.2V47.6H103.8V51.5Z" class="a"/><path d="M105.8 47.6C105.8 47.7 105.9 47.7 105.9 47.7L108.2 50.6C108.2 50.6 108.2 50.5 108.2 50.5 108.2 50.4 108.2 50.4 108.2 50.3V47.6H108.7V51.5H108.4C108.4 51.5 108.3 51.4 108.3 51.4 108.3 51.4 108.2 51.4 108.2 51.4L105.9 48.5C105.9 48.5 105.9 48.6 105.9 48.6 105.9 48.6 105.9 48.7 105.9 48.7V51.5H105.4V47.6H105.7C105.7 47.6 105.8 47.6 105.8 47.6Z" class="a"/><path d="M112.7 47.6V48H110.8V49.3H112.4V49.7H110.8V51H112.7V51.4H110.2V47.6H112.7Z" class="a"/><path d="M55.3 24L79.6 30.5V53.4L55.3 46.9V24ZM53.7 22V48L81.2 55.4V29.4L53.7 22Z" class="a"/><path d="M68.5 67.4L41 60.1V34.1L68.5 41.4V67.4Z" class="a"/><path d="M54.2 23.7L78.2 30.1 68 39.8 44 33.3 54.2 23.7ZM53.7 22L41 34.1 68.5 41.4 81.2 29.4 53.7 22Z" class="a"/><path d="M70 66L81.2 55.4 70 52.4V66Z" class="a"/></svg>

