<svg xmlns="http://www.w3.org/2000/svg" width="44" height="44" viewBox="0 0 44 44" fill="none"><style>.a{fill:white;}</style><path d="M44 22C44 28.1 41.5 33.6 37.6 37.6 33.6 41.5 28.1 44 22 44 15.9 44 10.4 41.5 6.4 37.6 2.5 33.6 0 28.1 0 22 0 15.9 2.5 10.4 6.4 6.4 10.4 2.5 15.9 0 22 0 28.1 0 33.6 2.5 37.6 6.4 41.5 10.4 44 15.9 44 22Z" class="a"/><g clip-path="url(#clip0)"><path d="M25.3 15.3H27.2V12.1C26.8 12.1 25.8 12 24.5 12 21.9 12 20.1 13.7 20.1 16.7V19.5H17.2V23.1H20.1V32H23.6V23.1H26.4L26.9 19.5H23.6V17.1C23.6 16 23.9 15.3 25.3 15.3Z" fill="#AFB1B8"/></g><defs><clipPath><rect width="20" height="20" class="a"/></clipPath></defs></svg>