<svg xmlns="http://www.w3.org/2000/svg" width="44" height="44" viewBox="0 0 44 44" fill="none"><style>.a{fill:white;}.b{fill:#AFB1B8;}</style><path d="M44 22C44 28.1 41.5 33.6 37.6 37.6 33.6 41.5 28.1 44 22 44 15.9 44 10.4 41.5 6.4 37.6 2.5 33.6 0 28.1 0 22 0 15.9 2.5 10.4 6.4 6.4 10.4 2.5 15.9 0 22 0 28.1 0 33.6 2.5 37.6 6.4 41.5 10.4 44 15.9 44 22Z" class="a"/><g clip-path="url(#clip0)"><path d="M32 17.9C31.9 16.8 31.8 16.1 31.5 15.5 31.3 14.8 30.9 14.2 30.4 13.7 29.9 13.2 29.3 12.8 28.6 12.5 28 12.3 27.2 12.1 26.2 12.1 25.1 12 24.8 12 22 12 19.3 12 19 12 17.9 12.1 16.9 12.1 16.1 12.3 15.5 12.5 14.8 12.8 14.2 13.2 13.7 13.7 13.2 14.2 12.8 14.8 12.6 15.4 12.3 16.1 12.1 16.8 12.1 17.9 12 18.9 12 19.3 12 22 12 24.7 12 25.1 12.1 26.1 12.1 27.2 12.3 27.9 12.6 28.6 12.8 29.2 13.2 29.8 13.7 30.3 14.2 30.8 14.8 31.2 15.5 31.5 16.1 31.7 16.8 31.9 17.9 31.9 19 32 19.3 32 22 32 24.7 32 25.1 32 26.2 31.9 27.2 31.9 27.9 31.7 28.6 31.5 29.9 31 31 29.9 31.5 28.6 31.8 27.9 31.9 27.2 32 26.1 32 25.1 32 24.7 32 22 32 19.3 32 18.9 32 17.9ZM30.2 26C30.1 27 30 27.5 29.8 27.9 29.5 28.8 28.8 29.5 27.9 29.8 27.6 29.9 27.1 30.1 26.1 30.1 25 30.2 24.7 30.2 22 30.2 19.4 30.2 19.1 30.2 18 30.1 17 30.1 16.5 29.9 16.1 29.8 15.7 29.6 15.3 29.4 15 29.1 14.7 28.7 14.4 28.3 14.3 27.9 14.1 27.6 13.9 27 13.9 26 13.9 25 13.8 24.7 13.8 22 13.8 19.3 13.9 19 13.9 18 13.9 17 14.1 16.5 14.3 16.1 14.4 15.7 14.7 15.3 15 15 15.3 14.6 15.7 14.4 16.1 14.2 16.5 14.1 17 13.9 18 13.9 19.1 13.8 19.4 13.8 22 13.8 24.7 13.8 25 13.8 26.1 13.9 27.1 13.9 27.6 14.1 27.9 14.2 28.4 14.4 28.8 14.6 29.1 15 29.4 15.3 29.7 15.7 29.8 16.1 30 16.5 30.1 17 30.2 18 30.2 19 30.2 19.3 30.2 22 30.2 24.7 30.2 25 30.2 26Z" class="b"/><path d="M22 16.9C19.2 16.9 16.9 19.2 16.9 22 16.9 24.8 19.2 27.1 22 27.1 24.9 27.1 27.2 24.8 27.2 22 27.2 19.2 24.9 16.9 22 16.9ZM22 25.3C20.2 25.3 18.7 23.8 18.7 22 18.7 20.2 20.2 18.7 22 18.7 23.9 18.7 25.4 20.2 25.4 22 25.4 23.8 23.9 25.3 22 25.3Z" class="b"/><path d="M28.6 16.7C28.6 17.3 28 17.9 27.4 17.9 26.7 17.9 26.2 17.3 26.2 16.7 26.2 16 26.7 15.5 27.4 15.5 28 15.5 28.6 16 28.6 16.7Z" class="b"/></g><defs><clipPath><rect width="20" height="20" class="a"/></clipPath></defs></svg>
