<svg xmlns="http://www.w3.org/2000/svg" width="44" height="44" viewBox="0 0 44 44" fill="none"><style>.a{fill:white;}.b{fill:#AFB1B8;}</style><path d="M44 22C44 28.1 41.5 33.6 37.6 37.6 33.6 41.5 28.1 44 22 44 15.9 44 10.4 41.5 6.4 37.6 2.5 33.6 0 28.1 0 22 0 15.9 2.5 10.4 6.4 6.4 10.4 2.5 15.9 0 22 0 28.1 0 33.6 2.5 37.6 6.4 41.5 10.4 44 15.9 44 22Z" class="a"/><g clip-path="url(#clip0)"><path d="M32 32V32H32V24.7C32 21.1 31.2 18.3 27 18.3 25 18.3 23.7 19.4 23.1 20.5H23.1V18.6H19.1V32H23.2V25.4C23.2 23.6 23.5 22 25.7 22 27.8 22 27.9 24 27.9 25.5V32H32Z" class="b"/><path d="M12.3 18.6H16.5V32H12.3V18.6Z" class="b"/><path d="M14.4 12C13.1 12 12 13.1 12 14.4 12 15.7 13.1 16.8 14.4 16.8 15.7 16.8 16.8 15.7 16.8 14.4 16.8 13.1 15.7 12 14.4 12V12Z" class="b"/></g><defs><clipPath><rect width="20" height="20" class="a"/></clipPath></defs></svg>