<svg aria-hidden="true" style="position: absolute; width: 0; height: 0; overflow: hidden;" version="1.1" xmlns="http://www.w3.org/2000/svg" xmlns:xlink="http://www.w3.org/1999/xlink">
<defs>
<symbol id="icon-envelope" viewBox="0 0 43 32"><g enable-background="new">
<path d="M38.667 0h-34.667c-2.133 0-4 1.867-4 4v24c0 2.133 1.867 4 4 4h34.667c2.133 0 4-1.867 4-4v-24c0-2.133-1.867-4-4-4zM38.667 2.667c0.267 0 0.267 0 0.533 0l-17.867 15.467-17.867-15.467c0.267 0 0.267 0 0.533 0h34.667zM38.667 29.333h-34.667c-0.8 0-1.333-0.533-1.333-1.333v-22.4l17.867 15.467c0.267 0.267 0.533 0.267 0.8 0.267s0.533 0 0.8-0.267l17.867-15.467v22.4c0 0.8-0.533 1.333-1.333 1.333z"></path>
</symbol>
<symbol id="icon-smartphone" viewBox="0 0 20 32">
<path d="M8.5 0H1.5C0.7 0 0 0.7 0 1.5V14.5C0 15.3 0.7 16 1.5 16H8.5C9.3 16 10 15.3 10 14.5V1.5C10 0.7 9.3 0 8.5 0ZM1.5 1H8.5C8.8 1 9 1.2 9 1.5V12H1V1.5C1 1.2 1.2 1 1.5 1ZM8.5 15H1.5C1.2 15 1 14.8 1 14.5V13H9V14.5C9 14.8 8.8 15 8.5 15Z"></svg>
</symbol>
<symbol id="icon-fb" viewBox="0 0 32 32">
<path fill="#fff" style="fill: var(--color2, #fff)" d="M32 16c0 4.436-1.818 8.436-4.655 11.345-2.909 2.836-6.909 4.655-11.345 4.655s-8.436-1.818-11.345-4.655c-2.836-2.909-4.655-6.909-4.655-11.345s1.818-8.436 4.655-11.345c2.909-2.836 6.909-4.655 11.345-4.655s8.436 1.818 11.345 4.655c2.836 2.909 4.655 6.909 4.655 11.345z"></path>
<path fill="#afb1b8" style="fill: var(--color3, #afb1b8)" d="M18.4 11.127h1.382v-2.327c-0.291 0-1.018-0.073-1.964-0.073-1.891 0-3.2 1.236-3.2 3.418v2.036h-2.109v2.618h2.109v6.473h2.545v-6.473h2.036l0.364-2.618h-2.4v-1.745c0-0.8 0.218-1.309 1.236-1.309z"></path>
</symbol>
<symbol id="icon-Instagram" viewBox="0 0 32 32">
<path fill="#fff" style="fill: var(--color2, #fff)" d="M32 16c0 4.436-1.818 8.436-4.655 11.345-2.909 2.836-6.909 4.655-11.345 4.655s-8.436-1.818-11.345-4.655c-2.836-2.909-4.655-6.909-4.655-11.345s1.818-8.436 4.655-11.345c2.909-2.836 6.909-4.655 11.345-4.655s8.436 1.818 11.345 4.655c2.836 2.909 4.655 6.909 4.655 11.345z"></path>
<path fill="#afb1b8" style="fill: var(--color3, #afb1b8)" d="M23.273 13.018c-0.073-0.8-0.145-1.309-0.364-1.745-0.145-0.509-0.436-0.945-0.8-1.309s-0.8-0.655-1.309-0.873c-0.436-0.145-1.018-0.291-1.745-0.291-0.8-0.073-1.018-0.073-3.055-0.073-1.964 0-2.182 0-2.982 0.073-0.727 0-1.309 0.145-1.745 0.291-0.509 0.218-0.945 0.509-1.309 0.873s-0.655 0.8-0.8 1.236c-0.218 0.509-0.364 1.018-0.364 1.818-0.073 0.727-0.073 1.018-0.073 2.982s0 2.255 0.073 2.982c0 0.8 0.145 1.309 0.364 1.818 0.145 0.436 0.436 0.873 0.8 1.236s0.8 0.655 1.309 0.873c0.436 0.145 0.945 0.291 1.745 0.291 0.8 0.073 1.018 0.073 2.982 0.073s2.255 0 3.055-0.073c0.727 0 1.236-0.145 1.745-0.291 0.945-0.364 1.745-1.164 2.109-2.109 0.218-0.509 0.291-1.018 0.364-1.818 0-0.727 0-1.018 0-2.982s0-2.255 0-2.982zM21.964 18.909c-0.073 0.727-0.145 1.091-0.291 1.382-0.218 0.655-0.727 1.164-1.382 1.382-0.218 0.073-0.582 0.218-1.309 0.218-0.8 0.073-1.018 0.073-2.982 0.073-1.891 0-2.109 0-2.909-0.073-0.727 0-1.091-0.145-1.382-0.218-0.291-0.145-0.582-0.291-0.8-0.509-0.218-0.291-0.436-0.582-0.509-0.873-0.145-0.218-0.291-0.655-0.291-1.382s-0.073-0.945-0.073-2.909c0-1.964 0.073-2.182 0.073-2.909s0.145-1.091 0.291-1.382c0.073-0.291 0.291-0.582 0.509-0.8 0.218-0.291 0.509-0.436 0.8-0.582 0.291-0.073 0.655-0.218 1.382-0.218 0.8-0.073 1.018-0.073 2.909-0.073 1.964 0 2.182 0 2.982 0.073 0.727 0 1.091 0.145 1.309 0.218 0.364 0.145 0.655 0.291 0.873 0.582 0.218 0.218 0.436 0.509 0.509 0.8 0.145 0.291 0.218 0.655 0.291 1.382 0 0.727 0 0.945 0 2.909s0 2.182 0 2.909z"></path>
<path fill="#afb1b8" style="fill: var(--color3, #afb1b8)" d="M16 12.291c-2.036 0-3.709 1.673-3.709 3.709s1.673 3.709 3.709 3.709c2.109 0 3.782-1.673 3.782-3.709s-1.673-3.709-3.782-3.709zM16 18.4c-1.309 0-2.4-1.091-2.4-2.4s1.091-2.4 2.4-2.4c1.382 0 2.473 1.091 2.473 2.4s-1.091 2.4-2.473 2.4z"></path>
<path fill="#afb1b8" style="fill: var(--color3, #afb1b8)" d="M20.8 12.145c0 0.436-0.436 0.873-0.873 0.873-0.509 0-0.873-0.436-0.873-0.873 0-0.509 0.364-0.873 0.873-0.873 0.436 0 0.873 0.364 0.873 0.873z"></path>
</symbol>
<symbol id="icon-linked" viewBox="0 0 32 32"><g enable-background="new">
<path fill="#fff" style="fill: var(--color2, #fff)" d="M32 16c0 4.436-1.818 8.436-4.655 11.345-2.909 2.836-6.909 4.655-11.345 4.655s-8.436-1.818-11.345-4.655c-2.836-2.909-4.655-6.909-4.655-11.345s1.818-8.436 4.655-11.345c2.909-2.836 6.909-4.655 11.345-4.655s8.436 1.818 11.345 4.655c2.836 2.909 4.655 6.909 4.655 11.345z"></path>
<path fill="#afb1b8" style="fill: var(--color3, #afb1b8)" d="M23.273 23.273v0 0-5.309c0-2.618-0.582-4.655-3.636-4.655-1.455 0-2.4 0.8-2.836 1.6v0-1.382h-2.909v9.745h2.982v-4.8c0-1.309 0.218-2.473 1.818-2.473 1.527 0 1.6 1.455 1.6 2.545v4.727h2.982z"></path>
<path fill="#afb1b8" style="fill: var(--color3, #afb1b8)" d="M8.945 13.527h3.055v9.745h-3.055v-9.745z"></path>
<path fill="#afb1b8" style="fill: var(--color3, #afb1b8)" d="M10.473 8.727c-0.945 0-1.745 0.8-1.745 1.745s0.8 1.745 1.745 1.745c0.945 0 1.745-0.8 1.745-1.745s-0.8-1.745-1.745-1.745v0z"></path></g>
</symbol>
<symbol id="icon-twit" viewBox="0 0 32 32">
<path fill="#fff" style="fill: var(--color2, #fff)" d="M32 16c0 4.436-1.818 8.436-4.655 11.345-2.909 2.836-6.909 4.655-11.345 4.655s-8.436-1.818-11.345-4.655c-2.836-2.909-4.655-6.909-4.655-11.345s1.818-8.436 4.655-11.345c2.909-2.836 6.909-4.655 11.345-4.655s8.436 1.818 11.345 4.655c2.836 2.909 4.655 6.909 4.655 11.345z"></path>
<path fill="#afb1b8" style="fill: var(--color3, #afb1b8)" d="M23.273 11.491c-0.509 0.218-1.091 0.364-1.745 0.436 0.655-0.364 1.091-0.945 1.309-1.6-0.582 0.364-1.164 0.582-1.891 0.727-0.509-0.582-1.309-0.945-2.182-0.945-1.6 0-2.982 1.309-2.982 2.982 0 0.218 0.073 0.436 0.073 0.655-2.473-0.145-4.655-1.309-6.109-3.127-0.291 0.436-0.436 0.945-0.436 1.527 0 1.018 0.582 1.964 1.382 2.473-0.509 0-1.018-0.145-1.382-0.364 0 0 0 0 0 0 0 1.455 1.018 2.691 2.4 2.982-0.218 0.073-0.509 0.073-0.8 0.073-0.218 0-0.364 0-0.582-0.073 0.436 1.236 1.527 2.109 2.836 2.109-1.018 0.8-2.327 1.236-3.709 1.236-0.291 0-0.509 0-0.727 0 1.309 0.873 2.909 1.309 4.582 1.309 5.455 0 8.509-4.509 8.509-8.436 0-0.145 0-0.291-0.073-0.436 0.655-0.364 1.091-0.945 1.527-1.527z"></path>
</symbol>
<symbol id="icon-Client-1" viewBox="0 0 60 32">
<path fill="#afb1b8" style="fill: var(--color3, #afb1b8)" d="M24.533 7.111l2.596 2.453h7.253v6.862l2.596 2.453v-11.769h-12.444z"></path>
<path fill="#afb1b8" style="fill: var(--color3, #afb1b8)" d="M22.4 9.458v11.449h12.089v-4.551l-7.289-6.898h-4.8zM32.178 19.236h-7.858v-7.68h0.533v7.147h7.324v0.533z"></path>
<path fill="#afb1b8" style="fill: var(--color3, #afb1b8)" d="M25.884 23.040l0.284-0.604h0.249l-0.427 0.782v0.498h-0.213v-0.498l-0.427-0.782h0.249l0.284 0.604zM27.129 23.396h-0.498l-0.107 0.32h-0.213l0.462-1.28h0.213l0.462 1.28h-0.213l-0.107-0.32zM26.702 23.218h0.356l-0.178-0.498-0.178 0.498zM27.982 23.36c0-0.071 0.036-0.107 0.071-0.178 0.036-0.036 0.071-0.107 0.178-0.142-0.036-0.071-0.071-0.142-0.107-0.178 0-0.036-0.036-0.071-0.036-0.107 0-0.107 0.036-0.178 0.107-0.249s0.142-0.071 0.249-0.071c0.071 0 0.142 0 0.213 0.071 0.071 0.036 0.107 0.107 0.107 0.178s-0.036 0.107-0.071 0.178c0 0.036-0.071 0.071-0.107 0.107l-0.107 0.071 0.249 0.284c0.036-0.071 0.071-0.142 0.071-0.213h0.178c0 0.142-0.036 0.284-0.107 0.356l0.178 0.249h-0.249l-0.071-0.107c-0.107 0.071-0.213 0.107-0.32 0.107-0.142 0-0.213-0.036-0.284-0.107-0.107-0.071-0.142-0.142-0.142-0.249zM28.409 23.538c0.071 0 0.142 0 0.213-0.071l-0.284-0.32-0.036 0.036c-0.071 0.036-0.107 0.107-0.107 0.178 0 0.036 0.036 0.107 0.071 0.142s0.071 0.036 0.142 0.036zM28.302 22.72c0 0.071 0.036 0.107 0.071 0.213l0.107-0.071 0.036-0.036c0.036-0.036 0.036-0.071 0.036-0.107s0-0.071-0.036-0.107c0 0-0.036-0.036-0.071-0.036-0.071 0-0.071 0.036-0.107 0.036-0.036 0.036-0.036 0.071-0.036 0.107zM30.578 23.289c0 0.142-0.036 0.249-0.142 0.32-0.071 0.071-0.178 0.107-0.356 0.107-0.071 0-0.178-0.036-0.249-0.071s-0.142-0.107-0.178-0.213c-0.036-0.071-0.071-0.178-0.071-0.284v-0.142c0-0.107 0.036-0.213 0.071-0.32 0.036-0.071 0.107-0.142 0.178-0.178 0.071-0.071 0.178-0.071 0.284-0.071 0.142 0 0.249 0.036 0.32 0.107 0.107 0.071 0.142 0.178 0.142 0.32h-0.213c0-0.107-0.036-0.178-0.071-0.213s-0.107-0.036-0.178-0.036c-0.107 0-0.178 0-0.213 0.071-0.071 0.071-0.107 0.178-0.107 0.32v0.107c0 0.142 0.036 0.249 0.071 0.32 0.071 0.071 0.142 0.107 0.213 0.107 0.107 0 0.178 0 0.213-0.071 0.036-0.036 0.071-0.071 0.071-0.178h0.213zM31.787 23.111c0 0.107 0 0.213-0.036 0.32-0.071 0.071-0.107 0.178-0.213 0.213-0.071 0.036-0.142 0.071-0.249 0.071s-0.213-0.036-0.284-0.071c-0.071-0.036-0.142-0.107-0.178-0.213-0.071-0.107-0.071-0.213-0.071-0.32v-0.071c0-0.142 0-0.249 0.071-0.32 0.036-0.107 0.107-0.178 0.178-0.213 0.071-0.071 0.178-0.071 0.284-0.071 0.071 0 0.178 0 0.249 0.071 0.107 0.036 0.142 0.107 0.178 0.213 0.071 0.071 0.071 0.178 0.071 0.32v0.071zM31.573 23.040c0-0.142-0.036-0.249-0.071-0.32-0.071-0.071-0.142-0.107-0.213-0.107-0.107 0-0.178 0.036-0.249 0.107-0.036 0.071-0.071 0.178-0.071 0.32v0.071c0 0.142 0.036 0.249 0.071 0.32 0.071 0.071 0.142 0.107 0.249 0.107 0.071 0 0.142-0.036 0.213-0.107 0.036-0.071 0.071-0.178 0.071-0.32v-0.071z"></path>
</symbol>
<symbol id="icon-Client-2" viewBox="0 0 60 32">
<path fill="#afb1b8" style="fill: var(--color3, #afb1b8)" d="M29.156 7.787h0.036c0.107 0 0.178 0.036 0.284 0.036 0.427 0.036 0.853 0.071 1.28 0.178v-0.996c-0.427-0.107-0.889-0.178-1.316-0.213-0.178-0.036-0.356-0.036-0.533-0.036h-0.142c-0.889 0-1.742 0.107-2.596 0.32-0.996 0.249-1.92 0.64-2.773 1.138v10.098c0.818-0.462 1.707-0.782 2.631-1.031 0.711-0.178 1.458-0.284 2.204-0.32h0.036c0.142-0.036 0.249-0.036 0.391-0.036v-1.031c-0.996 0.036-1.956 0.142-2.88 0.391-0.356 0.107-0.711 0.178-0.996 0.284l-0.391 0.142v-7.893l0.178-0.071c1.173-0.533 2.453-0.889 3.733-0.96 0 0 0.036 0 0.036 0 0.142 0 0.284 0 0.427 0h0.142c0.107 0 0.178 0 0.249 0z"></path>
<path fill="#afb1b8" style="fill: var(--color3, #afb1b8)" d="M31.68 8.853c-0.249 0-0.462 0-0.676 0-0.284-0.036-0.569-0.071-0.818-0.107-0.178-0.036-0.32-0.071-0.462-0.107v9.991c0.64 0.142 1.28 0.249 1.956 0.213 0.889 0 1.778-0.107 2.631-0.32 0.96-0.249 1.884-0.604 2.738-1.138v-9.92c-0.818 0.462-1.707 0.818-2.631 1.031-0.889 0.249-1.813 0.356-2.738 0.356zM35.662 9.031l0.356-0.107v7.858l-0.142 0.071c-0.569 0.284-1.209 0.498-1.849 0.676-0.747 0.213-1.529 0.284-2.347 0.32-0.213 0-0.462-0.036-0.711-0.036l-0.213-0.036v-8.107l0.284 0.036c0.178 0 0.427 0 0.64 0 1.031 0 2.027-0.107 2.987-0.356 0.356-0.107 0.676-0.213 0.996-0.32z"></path>
<path fill="#afb1b8" style="fill: var(--color3, #afb1b8)" d="M24.071 21.76c-0.036-0.036-0.107-0.107-0.178-0.107-0.071-0.036-0.142-0.071-0.213-0.036-0.071 0-0.142 0-0.213 0.036s-0.142 0.071-0.178 0.107c-0.071 0.071-0.107 0.107-0.142 0.178s-0.036 0.142-0.036 0.213v1.351c0 0.107 0.036 0.213 0.071 0.284s0.071 0.142 0.107 0.178c0.071 0.071 0.142 0.071 0.213 0.107 0.036 0.036 0.107 0.036 0.178 0.036s0.142-0.036 0.213-0.071c0.071 0 0.142-0.071 0.178-0.107 0.071-0.071 0.107-0.107 0.142-0.178s0.036-0.142 0.036-0.213v-0.142h-0.356v0.107c0 0.036 0 0.071 0 0.107-0.036 0.036-0.036 0.071-0.071 0.071-0.036 0.036-0.036 0.036-0.071 0.071-0.036 0-0.036 0-0.071 0s-0.071 0-0.107 0c-0.036-0.036-0.036-0.036-0.071-0.071-0.036-0.071-0.036-0.107-0.036-0.178v-1.28c0-0.071 0-0.107 0.036-0.178 0.036-0.036 0.036-0.071 0.071-0.071s0.071-0.036 0.107-0.036c0.036 0 0.071 0.036 0.071 0.036 0.036 0 0.071 0.036 0.071 0.071 0.071 0.036 0.071 0.107 0.071 0.178v0.107h0.356v-0.142c0-0.071 0-0.142-0.036-0.249-0.036-0.071-0.071-0.107-0.142-0.178z"></path>
<path fill="#afb1b8" style="fill: var(--color3, #afb1b8)" d="M26.169 21.76c-0.107-0.107-0.249-0.142-0.391-0.142-0.071 0-0.142 0-0.213 0.036-0.071 0-0.142 0.036-0.178 0.107-0.071 0.036-0.107 0.107-0.142 0.178s-0.036 0.178-0.036 0.249v1.316c-0.036 0.071 0 0.178 0.036 0.249s0.071 0.142 0.142 0.178c0.036 0.071 0.107 0.107 0.178 0.107 0.071 0.036 0.142 0.071 0.213 0.071s0.142-0.036 0.213-0.071c0.071 0 0.142-0.036 0.178-0.107 0.071-0.036 0.107-0.107 0.142-0.178s0.071-0.178 0.036-0.249v-1.316c0.036-0.071 0-0.178-0.036-0.249s-0.071-0.142-0.142-0.178zM26.027 23.502c0 0.036 0 0.071-0.036 0.107 0 0.036-0.036 0.036-0.036 0.071-0.071 0.036-0.107 0.071-0.178 0.071s-0.107-0.036-0.178-0.071c0-0.036-0.036-0.036-0.036-0.071-0.036-0.036-0.036-0.071-0.036-0.107v-1.316c0-0.036 0-0.071 0.036-0.107 0 0 0.036-0.036 0.036-0.071 0.071-0.036 0.107-0.071 0.178-0.071s0.107 0.036 0.178 0.071c0 0.036 0.036 0.071 0.036 0.071 0.036 0.036 0.036 0.071 0.036 0.107v1.316z"></path>
<path fill="#afb1b8" style="fill: var(--color3, #afb1b8)" d="M28.942 24.071v-2.453h-0.356l-0.427 1.316h-0.036l-0.427-1.316h-0.356v2.453h0.356v-1.493l0.356 1.067h0.178l0.356-1.067v1.493h0.356z"></path>
<path fill="#afb1b8" style="fill: var(--color3, #afb1b8)" d="M30.933 21.796c-0.071-0.071-0.142-0.107-0.213-0.142s-0.178-0.036-0.249-0.036h-0.533v2.453h0.356v-0.96h0.178c0.107 0 0.213 0 0.32-0.071 0.071-0.036 0.142-0.107 0.178-0.178 0.071-0.071 0.071-0.142 0.107-0.213 0-0.107 0-0.178 0-0.284s0-0.249-0.036-0.356c0-0.071-0.071-0.142-0.107-0.213zM30.756 22.542c-0.036 0.036-0.036 0.071-0.036 0.142-0.036 0.036-0.071 0.036-0.107 0.071s-0.107 0.036-0.178 0.036h-0.142v-0.853h0.178c0.071 0 0.107 0.036 0.142 0.036 0.036 0.036 0.071 0.071 0.107 0.107 0 0.036 0.036 0.071 0.036 0.142 0 0.036 0 0.107 0 0.142 0 0.071 0 0.107 0 0.178v0z"></path>
<path fill="#afb1b8" style="fill: var(--color3, #afb1b8)" d="M32.569 21.618h-0.284l-0.533 2.453h0.356l0.107-0.533h0.462l0.107 0.533h0.356l-0.569-2.453zM32.249 23.218l0.178-0.889 0.178 0.889h-0.356z"></path>
<path fill="#afb1b8" style="fill: var(--color3, #afb1b8)" d="M34.809 23.111v0l-0.533-1.493h-0.32v2.453h0.356v-1.458l0.533 1.458h0.32v-2.453h-0.356v1.493z"></path>
<path fill="#afb1b8" style="fill: var(--color3, #afb1b8)" d="M36.942 21.618l-0.249 0.96h-0.036l-0.284-0.96h-0.356l0.498 1.422v1.031h0.32v-1.031l0.498-1.422h-0.391z"></path>
<path fill="#afb1b8" style="fill: var(--color3, #afb1b8)" d="M23.111 24.747h0.178v0.498h0.107v-0.498h0.178v-0.071h-0.462v0.071z"></path>
<path fill="#afb1b8" style="fill: var(--color3, #afb1b8)" d="M24.533 24.676l-0.213 0.569h0.107l0.036-0.142h0.249l0.036 0.142h0.142l-0.249-0.569h-0.107zM24.498 24.996l0.071-0.213 0.107 0.213h-0.178z"></path>
<path fill="#afb1b8" style="fill: var(--color3, #afb1b8)" d="M25.92 25.031h0.142v0.071c-0.036 0.036-0.107 0.036-0.142 0.036s-0.036 0-0.071 0c0 0-0.036-0.036-0.036-0.036-0.036-0.071-0.071-0.107-0.071-0.142 0-0.142 0.071-0.213 0.178-0.213 0.036 0 0.071 0 0.071 0.036 0.036 0 0.036 0.036 0.071 0.071l0.107-0.036c-0.036-0.107-0.107-0.178-0.249-0.178-0.071 0-0.142 0.036-0.213 0.071 0 0.036-0.036 0.071-0.036 0.107-0.036 0.036-0.036 0.107-0.036 0.142 0 0.071 0.036 0.142 0.071 0.213 0.036 0 0.071 0.036 0.107 0.036 0.036 0.036 0.071 0.036 0.107 0.036 0.107 0 0.178-0.036 0.249-0.107v-0.213h-0.249v0.107z"></path>
<path fill="#afb1b8" style="fill: var(--color3, #afb1b8)" d="M27.342 24.676h-0.107v0.569h0.391v-0.107h-0.284v-0.462z"></path>
<path fill="#afb1b8" style="fill: var(--color3, #afb1b8)" d="M28.551 24.676h-0.107v0.569h0.107v-0.569z"></path>
<path fill="#afb1b8" style="fill: var(--color3, #afb1b8)" d="M29.724 25.031l-0.213-0.356h-0.107v0.569h0.107v-0.391l0.213 0.391h0.107v-0.569h-0.107v0.356z"></path>
<path fill="#afb1b8" style="fill: var(--color3, #afb1b8)" d="M30.791 24.996h0.284v-0.107h-0.284v-0.142h0.32v-0.071h-0.427v0.569h0.427v-0.107h-0.32v-0.142z"></path>
<path fill="#afb1b8" style="fill: var(--color3, #afb1b8)" d="M33.387 24.889h-0.213v-0.213h-0.107v0.569h0.107v-0.249h0.213v0.249h0.107v-0.569h-0.107v0.213z"></path>
<path fill="#afb1b8" style="fill: var(--color3, #afb1b8)" d="M34.453 24.996h0.284v-0.107h-0.284v-0.142h0.32v-0.071h-0.427v0.569h0.427v-0.107h-0.32v-0.142z"></path>
<path fill="#afb1b8" style="fill: var(--color3, #afb1b8)" d="M35.911 24.996c0.107-0.036 0.142-0.071 0.142-0.178 0.036 0 0-0.036 0-0.071 0 0-0.036-0.036-0.036-0.036-0.071-0.036-0.107-0.036-0.178-0.036h-0.249v0.569h0.142v-0.249c0.036 0 0.071 0 0.071 0 0.036 0.036 0.036 0.036 0.036 0.071l0.142 0.178h0.142l-0.071-0.107c-0.036-0.071-0.071-0.107-0.142-0.142zM35.804 24.889h-0.071v-0.142h0.071c0.036 0 0.071 0 0.107 0.036 0.036 0 0.036 0 0.036 0.036 0 0 0 0 0 0 0 0.036 0 0.036 0 0.036 0 0.036 0 0.036-0.036 0.036s-0.071 0.036-0.107 0z"></path>
<path fill="#afb1b8" style="fill: var(--color3, #afb1b8)" d="M37.013 24.996h0.284v-0.107h-0.284v-0.142h0.32v-0.071h-0.427v0.569h0.427v-0.107h-0.32v-0.142z"></path>
</symbol>
<symbol id="icon-Client-3" viewBox="0 0 60 32">
<path fill="#afb1b8" style="fill: var(--color3, #afb1b8)" d="M25.351 23.396c0.036 0 0.036 0 0.036 0s0 0 0 0l0.071 0.071c-0.036 0.071-0.107 0.142-0.178 0.178-0.107 0.036-0.213 0.036-0.32 0.036-0.071 0-0.178 0-0.249-0.036-0.107-0.036-0.178-0.107-0.213-0.142-0.071-0.071-0.107-0.142-0.142-0.213-0.036-0.107-0.036-0.178-0.036-0.284s0-0.178 0.036-0.284c0.036-0.071 0.071-0.142 0.142-0.213 0.071-0.036 0.142-0.107 0.213-0.107 0.107-0.036 0.213-0.071 0.284-0.071 0.107 0 0.178 0.036 0.284 0.036 0.071 0.036 0.142 0.071 0.178 0.142l-0.071 0.071c0 0 0 0 0 0.036 0 0 0 0-0.036 0 0 0 0 0 0 0l-0.036-0.036-0.071-0.036c0 0-0.036 0-0.036-0.036-0.036 0-0.071 0-0.107 0s-0.071-0.036-0.107 0c-0.071-0.036-0.142 0-0.178 0.036-0.071 0-0.142 0.036-0.178 0.071-0.036 0.071-0.071 0.107-0.107 0.178s-0.036 0.142-0.036 0.213c0 0.071 0 0.142 0.036 0.213s0.071 0.142 0.107 0.178c0.036 0.036 0.107 0.071 0.142 0.107 0.071 0 0.142 0.036 0.213 0.036 0.036 0 0.071 0 0.107 0 0.036-0.036 0.107-0.036 0.142-0.071s0.071-0.036 0.071-0.071c0.036 0 0.036 0 0.036 0z"></path>
<path fill="#afb1b8" style="fill: var(--color3, #afb1b8)" d="M27.484 23.004c0 0.107-0.036 0.178-0.071 0.284 0 0.071-0.071 0.142-0.107 0.213-0.071 0.036-0.142 0.107-0.213 0.142-0.213 0.036-0.391 0.036-0.569 0-0.071-0.036-0.142-0.107-0.213-0.142-0.071-0.071-0.107-0.142-0.142-0.213-0.071-0.178-0.071-0.391 0-0.569 0.036-0.071 0.071-0.142 0.142-0.213 0.071-0.036 0.142-0.107 0.213-0.107 0.178-0.071 0.356-0.071 0.569 0 0.071 0.036 0.142 0.071 0.213 0.142 0.036 0.036 0.107 0.107 0.107 0.178 0.036 0.107 0.071 0.178 0.071 0.284zM27.271 23.004c0.036-0.071 0-0.142-0.036-0.213 0-0.071-0.036-0.107-0.071-0.178-0.036-0.036-0.107-0.071-0.178-0.071-0.107-0.071-0.249-0.071-0.391 0-0.071 0-0.107 0.036-0.142 0.071-0.071 0.071-0.107 0.107-0.107 0.178-0.036 0.142-0.036 0.284 0 0.427 0 0.071 0.036 0.107 0.107 0.178 0.036 0.036 0.071 0.071 0.142 0.107 0.142 0.036 0.284 0.036 0.391 0 0.071-0.036 0.142-0.071 0.178-0.107 0.036-0.071 0.071-0.107 0.071-0.178 0.036-0.071 0.071-0.142 0.036-0.213z"></path>
<path fill="#afb1b8" style="fill: var(--color3, #afb1b8)" d="M28.907 23.253l0.036 0.036c0-0.036 0-0.036 0.036-0.036 0-0.036 0-0.036 0-0.071l0.462-0.818c0.036 0 0.036 0 0.036 0s0.036 0 0.036 0h0.142v1.316h-0.178v-0.996c0 0 0 0 0-0.036 0 0 0-0.036 0-0.036l-0.462 0.818c0 0 0 0.036-0.036 0.036 0 0 0 0-0.036 0v0c-0.036 0-0.036 0-0.071 0 0 0 0-0.036 0-0.036l-0.498-0.818c0 0 0 0.036 0 0.036 0 0.036 0 0.036 0 0.036v0.996h-0.142v-1.316h0.142c0 0 0 0 0.036 0 0 0 0 0 0 0l0.498 0.818c0 0.036 0 0.036 0 0.071z"></path>
<path fill="#afb1b8" style="fill: var(--color3, #afb1b8)" d="M30.684 23.182v0.498h-0.178v-1.316h0.391c0.071 0 0.178 0 0.249 0 0.036 0.036 0.107 0.071 0.142 0.107s0.071 0.071 0.107 0.107c0 0.071 0.036 0.107 0.036 0.178s-0.036 0.107-0.036 0.178c-0.036 0.036-0.071 0.071-0.107 0.107-0.036 0.071-0.107 0.071-0.178 0.107s-0.142 0.036-0.213 0.036h-0.213zM30.684 23.040h0.213c0.036 0 0.107 0 0.142-0.036 0.036 0 0.071-0.036 0.107-0.036 0.036-0.036 0.036-0.071 0.071-0.107 0-0.036 0-0.071 0-0.107s0-0.071 0-0.107c-0.036-0.036-0.036-0.071-0.071-0.107-0.071-0.036-0.142-0.071-0.249-0.071h-0.213v0.569z"></path>
<path fill="#afb1b8" style="fill: var(--color3, #afb1b8)" d="M33.138 23.68h-0.142c0 0-0.036 0-0.036-0.036 0 0-0.036 0-0.036-0.036l-0.107-0.32h-0.64l-0.142 0.32c0 0.036 0 0.036 0 0.036-0.036 0-0.036 0.036-0.036 0.036h-0.142l0.533-1.316h0.178l0.569 1.316zM32.249 23.182h0.498l-0.213-0.533c-0.036-0.036-0.036-0.107-0.036-0.142l-0.036 0.071c0 0.036 0 0.036 0 0.071l-0.213 0.533z"></path>
<path fill="#afb1b8" style="fill: var(--color3, #afb1b8)" d="M33.92 22.364c0.036 0 0.036 0 0.036 0l0.818 0.996c0 0 0-0.036 0-0.036s0-0.036 0-0.036v-0.924h0.142v1.316h-0.071c-0.036 0-0.036 0-0.071-0.036 0 0 0 0 0 0l-0.818-0.996c0 0 0 0.036 0 0.036 0 0.036 0 0.036 0 0.036v0.96h-0.142v-1.316h0.071c0.036 0 0.036 0 0.036 0z"></path>
<path fill="#afb1b8" style="fill: var(--color3, #afb1b8)" d="M36.267 23.147v0.533h-0.178v-0.533l-0.498-0.782h0.142c0.036 0 0.036 0 0.036 0 0.036 0 0.036 0 0.036 0.036l0.32 0.498c0 0.036 0.036 0.036 0.036 0.071 0 0 0 0.036 0.036 0.036v-0.036c0-0.036 0.036-0.036 0.036-0.071l0.32-0.498c0-0.036 0-0.036 0.036-0.036 0 0 0-0.036 0.036-0.036h0.142l-0.498 0.818z"></path>
<path fill="#afb1b8" style="fill: var(--color3, #afb1b8)" d="M28.836 20.124c0.071 0.036 0.142 0.036 0.249 0.036 1.209-0.533 2.276-1.387 2.987-2.453 0.711-1.102 1.102-2.382 1.067-3.662l-1.351-1.28c0.284 1.351 0.142 2.773-0.391 4.089-0.498 1.28-1.387 2.453-2.56 3.271z"></path>
<path fill="#afb1b8" style="fill: var(--color3, #afb1b8)" d="M28.338 20.089h0.036c1.244-0.853 2.204-2.027 2.738-3.413 0.533-1.351 0.604-2.844 0.249-4.231l-1.956-1.849c0.782 1.493 1.102 3.2 0.924 4.871-0.178 1.707-0.889 3.307-1.991 4.622z"></path>
<path fill="#afb1b8" style="fill: var(--color3, #afb1b8)" d="M34.916 15.573c-0.32 1.422-1.138 2.702-2.276 3.627-0.356 0.284-0.711 0.533-1.102 0.747 0.96-0.249 1.813-0.711 2.524-1.351s1.28-1.422 1.636-2.276l-0.782-0.747z"></path>
<path fill="#afb1b8" style="fill: var(--color3, #afb1b8)" d="M34.596 15.36l-1.102-1.067c-0.036 1.209-0.391 2.418-1.067 3.449-0.64 1.031-1.6 1.884-2.738 2.453v0c0.284 0 0.533-0.036 0.782-0.036 1.031-0.427 1.956-1.067 2.702-1.92 0.711-0.818 1.209-1.813 1.422-2.88z"></path>
<path fill="#afb1b8" style="fill: var(--color3, #afb1b8)" d="M28.516 9.813l-1.351-1.28c-1.173 0.427-2.204 1.209-2.951 2.204-0.711 1.031-1.102 2.204-1.102 3.413v0c0 1.351 0.498 2.667 1.351 3.733 0.889 1.031 2.098 1.813 3.449 2.133 1.244-1.422 1.956-3.2 2.062-5.013 0.107-1.849-0.427-3.662-1.458-5.191z"></path>
<path fill="#afb1b8" style="fill: var(--color3, #afb1b8)" d="M37.689 15.147c0-1.564-0.676-3.093-1.849-4.231-1.209-1.138-2.809-1.778-4.48-1.778-0.782 0-1.529 0.142-2.276 0.391l8.178 7.787c0.284-0.676 0.427-1.422 0.427-2.169z"></path>
</symbol>
<symbol id="icon-Client-4" viewBox="0 0 60 32">
<path fill="#afb1b8" style="fill: var(--color3, #afb1b8)" d="M20.409 13.084v0c-0.818 0-1.458 0.64-1.458 1.422v0c0 0.782 0.64 1.422 1.458 1.422v0c0.818 0 1.458-0.64 1.458-1.422v0c0-0.782-0.64-1.422-1.458-1.422z"></path>
<path fill="#afb1b8" style="fill: var(--color3, #afb1b8)" d="M31.147 12.658c0-1.102-0.427-2.133-1.209-2.916-0.818-0.782-1.884-1.209-2.987-1.209v0c-1.138 0-2.204 0.427-2.987 1.209s-1.244 1.813-1.244 2.916v5.973c0 0 8.427-0.889 8.427-5.973v0z"></path>
<path fill="#afb1b8" style="fill: var(--color3, #afb1b8)" d="M16 20.622c0 0.747 0.32 1.493 0.853 2.027 0.569 0.533 1.316 0.818 2.062 0.818 0.782 0 1.529-0.284 2.098-0.818 0.533-0.533 0.853-1.28 0.853-2.027v-4.196c0 0-5.867 0.64-5.867 4.196zM18.916 21.369c-0.142 0-0.284-0.036-0.427-0.142-0.107-0.071-0.213-0.178-0.249-0.32-0.071-0.142-0.107-0.284-0.071-0.427s0.107-0.284 0.213-0.391c0.107-0.107 0.249-0.178 0.391-0.213s0.32 0 0.462 0.036c0.142 0.071 0.249 0.178 0.32 0.284 0.107 0.142 0.142 0.284 0.142 0.427 0 0.107 0 0.178-0.071 0.284-0.036 0.071-0.071 0.178-0.142 0.249s-0.178 0.107-0.249 0.142c-0.107 0.036-0.213 0.071-0.32 0.071v0z"></path>
<path fill="#afb1b8" style="fill: var(--color3, #afb1b8)" d="M24.924 20.907h-0.604v0.604h-0.32v-1.493h0.996v0.249h-0.676v0.391h0.604v0.249zM26.418 20.8c0 0.142-0.036 0.284-0.071 0.391-0.071 0.107-0.142 0.213-0.213 0.249-0.107 0.071-0.213 0.107-0.356 0.107s-0.249-0.036-0.32-0.107c-0.107-0.036-0.178-0.142-0.249-0.249-0.036-0.107-0.071-0.249-0.071-0.391v-0.071c0-0.142 0.036-0.284 0.071-0.391 0.071-0.107 0.142-0.213 0.213-0.249 0.107-0.071 0.213-0.107 0.356-0.107s0.249 0.036 0.32 0.107c0.107 0.036 0.178 0.142 0.249 0.249 0.036 0.107 0.071 0.249 0.071 0.391v0.071zM26.098 20.729c0-0.178-0.036-0.284-0.071-0.356-0.071-0.107-0.142-0.142-0.249-0.142s-0.178 0.036-0.249 0.142c-0.036 0.071-0.071 0.178-0.071 0.356v0.071c0 0.142 0.036 0.284 0.071 0.356 0.071 0.071 0.142 0.142 0.249 0.142s0.178-0.071 0.249-0.142c0.036-0.071 0.071-0.213 0.071-0.356v-0.071zM27.449 21.12c0-0.071-0.036-0.107-0.071-0.142s-0.107-0.071-0.213-0.107c-0.107-0.036-0.213-0.071-0.284-0.071-0.178-0.107-0.249-0.249-0.249-0.391 0-0.071 0.036-0.142 0.071-0.213s0.107-0.107 0.213-0.142c0.071-0.036 0.178-0.071 0.284-0.071s0.213 0.036 0.284 0.071c0.071 0.036 0.142 0.071 0.178 0.142 0.071 0.071 0.071 0.178 0.071 0.249h-0.284c0-0.071-0.036-0.107-0.071-0.142s-0.107-0.071-0.178-0.071c-0.107 0-0.142 0-0.178 0.036-0.071 0.036-0.071 0.071-0.071 0.142 0 0.036 0.036 0.107 0.071 0.107 0.036 0.036 0.107 0.071 0.213 0.107 0.178 0.071 0.32 0.107 0.391 0.213 0.071 0.071 0.107 0.178 0.107 0.284 0 0.142-0.036 0.249-0.142 0.32s-0.213 0.107-0.391 0.107c-0.107 0-0.213-0.036-0.32-0.071s-0.178-0.107-0.213-0.178c-0.071-0.071-0.071-0.142-0.071-0.249h0.32c0 0.178 0.071 0.249 0.284 0.249 0.071 0 0.142-0.036 0.178-0.036 0.036-0.036 0.071-0.071 0.071-0.142zM29.12 20.267h-0.498v1.244h-0.284v-1.244h-0.462v-0.249h1.244v0.249zM30.187 20.871h-0.604v0.391h0.711v0.249h-0.996v-1.493h0.996v0.249h-0.711v0.356h0.604v0.249zM31.040 20.978h-0.249v0.533h-0.32v-1.493h0.569c0.178 0 0.32 0.036 0.427 0.107s0.142 0.178 0.142 0.32c0 0.107-0.036 0.213-0.071 0.284s-0.107 0.107-0.213 0.142l0.356 0.64h-0.356l-0.284-0.533zM30.791 20.729h0.249c0.071 0 0.142-0.036 0.178-0.071 0.071-0.036 0.071-0.107 0.071-0.178s0-0.107-0.071-0.178c-0.036-0.036-0.071-0.036-0.178-0.036h-0.249v0.462zM32.676 20.978v0.533h-0.284v-1.493h0.569c0.107 0 0.213 0 0.32 0.036 0.071 0.071 0.142 0.107 0.178 0.178 0.071 0.107 0.071 0.178 0.071 0.284 0 0.142-0.036 0.249-0.142 0.356-0.107 0.071-0.249 0.107-0.427 0.107h-0.284zM32.676 20.729h0.284c0.107 0 0.142 0 0.213-0.071 0.036-0.036 0.036-0.071 0.036-0.142s0-0.142-0.036-0.178c-0.071-0.071-0.107-0.071-0.213-0.071h-0.284v0.462zM34.667 20.871h-0.604v0.391h0.711v0.249h-1.031v-1.493h1.031v0.249h-0.711v0.356h0.604v0.249zM36.124 20.267h-0.462v1.244h-0.32v-1.244h-0.462v-0.249h1.244v0.249zM37.191 20.871h-0.569v0.391h0.676v0.249h-0.996v-1.493h0.996v0.249h-0.676v0.356h0.569v0.249zM38.044 20.978h-0.249v0.533h-0.284v-1.493h0.533c0.178 0 0.32 0.036 0.427 0.107s0.142 0.178 0.142 0.32c0 0.107 0 0.213-0.071 0.284-0.036 0.071-0.107 0.107-0.178 0.142l0.32 0.64h-0.356l-0.284-0.533zM37.796 20.729h0.249c0.107 0 0.142-0.036 0.213-0.071 0.036-0.036 0.036-0.107 0.036-0.178s0-0.107-0.036-0.178c-0.036-0.036-0.107-0.036-0.213-0.036h-0.249v0.462zM39.644 21.12c0-0.071-0.036-0.107-0.071-0.142s-0.107-0.071-0.213-0.107c-0.107-0.036-0.213-0.071-0.249-0.071-0.178-0.107-0.284-0.249-0.284-0.391 0-0.071 0.036-0.142 0.071-0.213 0.071-0.071 0.142-0.107 0.213-0.142s0.178-0.071 0.284-0.071c0.107 0 0.213 0.036 0.284 0.071 0.107 0.036 0.178 0.071 0.213 0.142s0.071 0.178 0.071 0.249h-0.32c0-0.071-0.036-0.107-0.071-0.142s-0.107-0.071-0.178-0.071c-0.071 0-0.142 0-0.178 0.036s-0.071 0.071-0.071 0.142c0 0.036 0.036 0.107 0.071 0.107 0.071 0.036 0.142 0.071 0.213 0.107 0.178 0.071 0.32 0.107 0.391 0.213 0.107 0.071 0.142 0.178 0.142 0.284 0 0.142-0.071 0.249-0.142 0.32-0.107 0.071-0.249 0.107-0.427 0.107-0.107 0-0.213-0.036-0.32-0.071-0.071-0.036-0.142-0.107-0.213-0.178-0.036-0.071-0.071-0.142-0.071-0.249h0.32c0 0.178 0.107 0.249 0.284 0.249 0.071 0 0.142-0.036 0.178-0.036 0.036-0.036 0.071-0.071 0.071-0.142z"></path>
</symbol>
<symbol id="icon-Client-5" viewBox="0 0 60 32">
<path fill="#afb1b8" style="fill: var(--color3, #afb1b8)" d="M21.511 21.796c0.071 0.107 0.107 0.213 0.107 0.356 0 0.071 0 0.178-0.036 0.249s-0.071 0.142-0.142 0.213c-0.142 0.107-0.356 0.178-0.569 0.142h-0.96v-2.276h0.96c0.178 0 0.356 0.036 0.533 0.178 0.036 0.036 0.107 0.107 0.142 0.178s0.036 0.142 0.036 0.249c0 0.107-0.036 0.249-0.107 0.32-0.071 0.107-0.178 0.178-0.284 0.178 0.107 0.036 0.249 0.107 0.32 0.213zM20.373 21.44h0.391c0.107 0 0.178 0 0.284-0.071 0-0.036 0.036-0.071 0.036-0.107 0.036-0.036 0.036-0.071 0.036-0.107s0-0.107-0.036-0.142c0-0.036-0.036-0.071-0.036-0.107-0.107-0.036-0.178-0.071-0.284-0.071h-0.391v0.604zM21.084 22.329c0.036-0.036 0.036-0.071 0.071-0.107 0-0.036 0-0.107 0-0.142s0-0.071 0-0.107c-0.036-0.071-0.036-0.107-0.071-0.107-0.107-0.071-0.178-0.107-0.284-0.107h-0.427v0.64h0.427c0.107 0 0.178-0.036 0.284-0.071z"></path>
<path fill="#afb1b8" style="fill: var(--color3, #afb1b8)" d="M23.467 22.756l-0.533-0.889h-0.213v0.889h-0.462v-2.276h0.889c0.213 0 0.427 0.071 0.604 0.213 0.107 0.107 0.178 0.284 0.178 0.462 0.036 0.142-0.036 0.32-0.142 0.462s-0.249 0.213-0.391 0.249l0.569 0.889h-0.498zM22.72 21.582h0.391c0.249 0 0.391-0.142 0.391-0.356 0-0.036 0-0.107-0.036-0.142 0-0.036-0.036-0.071-0.071-0.107-0.071-0.071-0.178-0.107-0.284-0.107h-0.391v0.711z"></path>
<path fill="#afb1b8" style="fill: var(--color3, #afb1b8)" d="M25.956 22.293h-0.924l-0.142 0.462h-0.498l0.853-2.24h0.498l0.853 2.24h-0.498l-0.142-0.462zM25.813 21.973l-0.32-0.96-0.32 0.96h0.64z"></path>
<path fill="#afb1b8" style="fill: var(--color3, #afb1b8)" d="M29.084 22.756h-0.462l-1.031-1.529v1.529h-0.427v-2.276h0.427l1.031 1.564v-1.564h0.462v2.276z"></path>
<path fill="#afb1b8" style="fill: var(--color3, #afb1b8)" d="M31.644 22.222c-0.071 0.178-0.213 0.32-0.391 0.391-0.213 0.107-0.427 0.142-0.64 0.142h-0.818v-2.276h0.818c0.213 0 0.427 0.036 0.64 0.142 0.178 0.107 0.32 0.249 0.391 0.391 0.107 0.213 0.142 0.391 0.142 0.604s-0.036 0.427-0.142 0.604zM31.147 22.151c0.142-0.142 0.213-0.32 0.213-0.533 0-0.178-0.071-0.391-0.213-0.533s-0.356-0.213-0.569-0.213h-0.32v1.493h0.32c0.213 0 0.427-0.071 0.569-0.213z"></path>
<path fill="#afb1b8" style="fill: var(--color3, #afb1b8)" d="M26.24 7.822c0 0 5.831 2.204 5.724 5.44v5.404c0 0-5.831-2.204-5.724-5.404v-5.44z"></path>
<path fill="#afb1b8" style="fill: var(--color3, #afb1b8)" d="M37.156 17.387c1.138-0.747 2.382-1.209 3.733-1.351v-1.707c-1.529 0.604-2.844 1.671-3.733 3.058z"></path>
<path fill="#afb1b8" style="fill: var(--color3, #afb1b8)" d="M36.516 17.92c0.889-1.849 2.453-3.236 4.373-3.947v-4.907c0 0-8.32 3.164-8.142 7.751v7.716c0 0 0.356-0.142 0.96-0.391 0-0.249 0-0.498 0-0.747 0.178-2.133 1.173-4.089 2.809-5.476z"></path>
<path fill="#afb1b8" style="fill: var(--color3, #afb1b8)" d="M35.733 20.8c0.036-0.533 0.142-1.067 0.284-1.6-1.031 1.209-1.636 2.667-1.742 4.231-0.036 0.142-0.036 0.284-0.036 0.427 0.462-0.213 1.031-0.498 1.6-0.818-0.142-0.747-0.178-1.493-0.107-2.24z"></path>
<path fill="#afb1b8" style="fill: var(--color3, #afb1b8)" d="M36.053 20.8c-0.071 0.676-0.036 1.387 0.107 2.027 2.276-1.351 4.836-3.449 4.729-6.009v-0.249c-1.636 0.213-3.164 0.924-4.338 2.062-0.284 0.676-0.427 1.422-0.498 2.169z"></path>
</symbol>
<symbol id="icon-Client-6" viewBox="0 0 60 32">
<path fill="#afb1b8" style="fill: var(--color3, #afb1b8)" d="M30.471 15.431c-0.142-0.249-0.213-0.498-0.178-0.747v-1.067c0-0.32 0.071-0.569 0.178-0.747 0.142-0.142 0.391-0.249 0.711-0.249s0.533 0.071 0.64 0.213c0.142 0.178 0.213 0.427 0.213 0.64v0.249h-0.569v-0.249c0-0.071 0-0.178 0-0.249s-0.036-0.107-0.071-0.142c-0.071-0.036-0.142-0.071-0.213-0.071s-0.142 0.036-0.213 0.071c-0.036 0.036-0.071 0.107-0.071 0.178-0.036 0.071-0.036 0.142-0.036 0.249v1.28c0 0.142 0 0.249 0.071 0.356 0.036 0.036 0.071 0.071 0.107 0.107 0.036 0 0.107 0.036 0.142 0 0.071 0.036 0.142 0 0.178-0.036 0.071-0.036 0.107-0.107 0.107-0.178s0-0.178 0-0.249v-0.249h0.569v0.213c0 0.249-0.071 0.498-0.213 0.676-0.107 0.178-0.32 0.249-0.64 0.249s-0.569-0.107-0.711-0.249z"></path>
<path fill="#afb1b8" style="fill: var(--color3, #afb1b8)" d="M32.782 15.431c-0.142-0.178-0.213-0.427-0.213-0.747v-1.102c0-0.32 0.071-0.533 0.213-0.711s0.356-0.249 0.676-0.249c0.356 0 0.569 0.071 0.711 0.249s0.213 0.391 0.213 0.711v1.102c0 0.32-0.071 0.569-0.213 0.747-0.142 0.142-0.391 0.249-0.711 0.249s-0.533-0.107-0.676-0.249zM33.742 15.147c0.036-0.107 0.071-0.213 0.071-0.32v-1.351c0-0.142-0.036-0.249-0.071-0.32s-0.071-0.071-0.107-0.107-0.107-0.036-0.178-0.036c-0.036 0-0.071 0-0.142 0.036-0.036 0.036-0.071 0.036-0.107 0.107s-0.071 0.178-0.071 0.32v1.351c0 0.107 0.036 0.249 0.071 0.32 0.036 0.036 0.071 0.071 0.107 0.107 0.071 0 0.107 0.036 0.142 0.036 0.071 0 0.107-0.036 0.142-0.036 0.071-0.036 0.107-0.071 0.142-0.107v0z"></path>
<path fill="#afb1b8" style="fill: var(--color3, #afb1b8)" d="M35.058 12.658h0.569l0.462 2.062 0.462-2.062h0.569l0.036 2.987h-0.427l-0.036-2.062-0.427 2.062h-0.356l-0.462-2.098-0.036 2.098h-0.427l0.071-2.987z"></path>
<path fill="#afb1b8" style="fill: var(--color3, #afb1b8)" d="M37.831 12.658h0.924c0.533 0 0.782 0.284 0.782 0.853 0 0.533-0.249 0.818-0.818 0.818h-0.32v1.316h-0.569v-2.987zM38.613 13.938c0.071 0 0.107 0 0.178-0.036 0.036 0 0.107-0.036 0.142-0.071 0.071-0.107 0.107-0.213 0.071-0.32 0-0.107 0-0.178 0-0.284-0.036-0.036-0.036-0.036-0.071-0.071 0-0.036-0.036-0.036-0.071-0.071-0.071-0.036-0.142-0.036-0.249-0.036h-0.213v0.889h0.213z"></path>
<path fill="#afb1b8" style="fill: var(--color3, #afb1b8)" d="M40.391 12.658h0.604l0.604 2.987h-0.533l-0.107-0.711h-0.533l-0.142 0.711h-0.533l0.64-2.987zM40.889 14.613l-0.213-1.244-0.213 1.244h0.427z"></path>
<path fill="#afb1b8" style="fill: var(--color3, #afb1b8)" d="M42.133 12.658h0.391l0.747 1.707v-1.707h0.498v2.987h-0.391l-0.782-1.778v1.778h-0.462v-2.987z"></path>
<path fill="#afb1b8" style="fill: var(--color3, #afb1b8)" d="M44.871 14.507l-0.64-1.849h0.533l0.391 1.173 0.356-1.173h0.533l-0.64 1.849v1.138h-0.533v-1.138z"></path>
<path fill="#afb1b8" style="fill: var(--color3, #afb1b8)" d="M31.36 16.924v0.178h-0.462v1.209h-0.178v-1.209h-0.498v-0.178h1.138z"></path>
<path fill="#afb1b8" style="fill: var(--color3, #afb1b8)" d="M32.818 18.311h-0.142c-0.036 0-0.036-0.036-0.036-0.036-0.036 0-0.036 0-0.036-0.036l-0.142-0.32h-0.64l-0.142 0.32c0 0.036 0 0.036 0 0.036-0.036 0.036-0.036 0.036-0.036 0.036h-0.178l0.569-1.387h0.213l0.569 1.387zM31.893 17.778h0.533l-0.249-0.533c0-0.036-0.036-0.107-0.036-0.142 0 0.036 0 0.071 0 0.071l-0.036 0.071-0.213 0.533z"></path>
<path fill="#afb1b8" style="fill: var(--color3, #afb1b8)" d="M33.813 18.169c0.036 0 0.071 0 0.107 0s0.071 0 0.071-0.036c0.036 0 0.071 0 0.107 0 0-0.036 0.036-0.036 0.071-0.036v-0.32h-0.249c0 0 0 0 0 0s0 0 0 0c-0.036 0-0.036 0-0.036-0.036 0 0 0 0 0 0v-0.107h0.462v0.533c-0.036 0-0.071 0.036-0.142 0.071-0.036 0-0.071 0.036-0.107 0.036s-0.107 0.036-0.142 0.036c-0.071 0-0.107 0-0.178 0-0.107 0-0.178-0.036-0.284-0.036-0.071-0.036-0.142-0.107-0.213-0.142-0.071-0.071-0.107-0.142-0.142-0.249-0.036-0.071-0.071-0.178-0.071-0.284 0-0.071 0.036-0.178 0.071-0.284 0-0.071 0.071-0.142 0.142-0.213 0.036-0.036 0.142-0.107 0.213-0.142 0.107-0.036 0.213-0.036 0.32-0.036 0.036 0 0.107 0 0.142 0 0.036 0.036 0.107 0.036 0.142 0.036 0.036 0.036 0.071 0.036 0.107 0.071 0.036 0 0.071 0.036 0.107 0.071l-0.071 0.071c0 0 0 0.036 0 0.036s-0.036 0-0.036 0c0 0-0.036 0-0.036 0 0-0.036-0.036-0.036-0.036-0.036-0.036-0.036-0.071-0.036-0.107-0.036-0.036-0.036-0.071-0.036-0.107-0.036s-0.071-0.036-0.142-0.036c-0.071 0-0.142 0.036-0.213 0.071-0.071 0-0.107 0.036-0.142 0.107-0.071 0.036-0.107 0.107-0.107 0.142-0.071 0.178-0.071 0.32 0 0.462 0 0.071 0.036 0.142 0.107 0.178 0.036 0.036 0.107 0.071 0.142 0.107 0.071 0.036 0.178 0.036 0.249 0.036z"></path>
<path fill="#afb1b8" style="fill: var(--color3, #afb1b8)" d="M35.627 18.133h0.604v0.178h-0.818v-1.387h0.213v1.209z"></path>
<path fill="#afb1b8" style="fill: var(--color3, #afb1b8)" d="M36.907 18.311h-0.213v-1.387h0.213v1.387z"></path>
<path fill="#afb1b8" style="fill: var(--color3, #afb1b8)" d="M37.618 16.924c0 0.036 0.036 0.036 0.036 0.036l0.818 1.031c0 0 0-0.036 0-0.036 0-0.036 0-0.036 0-0.071v-0.96h0.178v1.387h-0.107c0 0-0.036-0.036-0.036-0.036s-0.036 0-0.036 0l-0.818-1.031c0 0 0 0.036 0 0.036s0 0.036 0 0.036v0.996h-0.178v-1.387h0.107c0 0 0.036 0 0.036 0z"></path>
<path fill="#afb1b8" style="fill: var(--color3, #afb1b8)" d="M40.071 16.924v0.142h-0.676v0.462h0.569v0.142h-0.569v0.462h0.676v0.142h-0.889v-1.351h0.889z"></path>
<path fill="#afb1b8" style="fill: var(--color3, #afb1b8)" d="M19.662 8.533l8.64 2.311v8.142l-8.64-2.311v-8.142zM19.093 7.822v9.244l9.778 2.631v-9.244l-9.778-2.631z"></path>
<path fill="#afb1b8" style="fill: var(--color3, #afb1b8)" d="M24.356 23.964l-9.778-2.596v-9.244l9.778 2.596v9.244z"></path>
<path fill="#afb1b8" style="fill: var(--color3, #afb1b8)" d="M19.271 8.427l8.533 2.276-3.627 3.449-8.533-2.311 3.627-3.413zM19.093 7.822l-4.516 4.302 9.778 2.596 4.516-4.267-9.778-2.631z"></path>
<path fill="#afb1b8" style="fill: var(--color3, #afb1b8)" d="M24.889 23.467l3.982-3.769-3.982-1.067v4.836z"></path>
</symbol>
</defs>
</svg>
