<svg xmlns="http://www.w3.org/2000/svg" width="44" height="44" viewBox="0 0 44 44" fill="none"><style>.a{fill:white;}</style><path d="M44 22C44 28.1 41.5 33.6 37.6 37.6 33.6 41.5 28.1 44 22 44 15.9 44 10.4 41.5 6.4 37.6 2.5 33.6 0 28.1 0 22 0 15.9 2.5 10.4 6.4 6.4 10.4 2.5 15.9 0 22 0 28.1 0 33.6 2.5 37.6 6.4 41.5 10.4 44 15.9 44 22Z" class="a"/><g clip-path="url(#clip0)"><path d="M32 15.8C31.3 16.1 30.5 16.3 29.6 16.4 30.5 15.9 31.1 15.1 31.4 14.2 30.6 14.7 29.8 15 28.8 15.2 28.1 14.4 27 13.9 25.8 13.9 23.6 13.9 21.7 15.7 21.7 18 21.7 18.3 21.8 18.6 21.8 18.9 18.4 18.7 15.4 17.1 13.4 14.6 13 15.2 12.8 15.9 12.8 16.7 12.8 18.1 13.6 19.4 14.7 20.1 14 20.1 13.3 19.9 12.8 19.6 12.8 19.6 12.8 19.6 12.8 19.6 12.8 21.6 14.2 23.3 16.1 23.7 15.8 23.8 15.4 23.8 15 23.8 14.7 23.8 14.5 23.8 14.2 23.7 14.8 25.4 16.3 26.6 18.1 26.6 16.7 27.7 14.9 28.3 13 28.3 12.6 28.3 12.3 28.3 12 28.3 13.8 29.5 16 30.1 18.3 30.1 25.8 30.1 30 23.9 30 18.5 30 18.3 30 18.1 29.9 17.9 30.8 17.4 31.4 16.6 32 15.8Z" fill="#AFB1B8"/></g><defs><clipPath><rect width="20" height="20" class="a"/></clipPath></defs></svg>
